<?xml version="1.0" encoding="UTF-8" standalone="no"?>
<!-- Created with Inkscape (http://www.inkscape.org/) -->

<svg
   width="264.38293mm"
   height="188.7525mm"
   viewBox="0 0 264.38293 188.7525"
   version="1.1"
   id="svg5"
   inkscape:version="1.1 (c4e8f9ed74, 2021-05-24)"
   sodipodi:docname="base.svg"
   xmlns:inkscape="http://www.inkscape.org/namespaces/inkscape"
   xmlns:sodipodi="http://sodipodi.sourceforge.net/DTD/sodipodi-0.dtd"
   xmlns:xlink="http://www.w3.org/1999/xlink"
   xmlns="http://www.w3.org/2000/svg"
   xmlns:svg="http://www.w3.org/2000/svg">
  <sodipodi:namedview
     id="namedview7"
     pagecolor="#ffffff"
     bordercolor="#cccccc"
     borderopacity="1"
     inkscape:pageshadow="0"
     inkscape:pageopacity="1"
     inkscape:pagecheckerboard="0"
     inkscape:document-units="mm"
     showgrid="false"
     inkscape:zoom="0.43295455"
     inkscape:cx="473.49081"
     inkscape:cy="352.23097"
     inkscape:window-width="1366"
     inkscape:window-height="694"
     inkscape:window-x="1366"
     inkscape:window-y="0"
     inkscape:window-maximized="1"
     inkscape:current-layer="layer1" />
  <defs
     id="defs2">
    <g
       id="g8659">
      <symbol
         overflow="visible"
         id="symbol4431">
        <path
           style="stroke:none"
           d=""
           id="path6544" />
      </symbol>
      <symbol
         overflow="visible"
         id="symbol5146">
        <path
           style="stroke:none"
           d="m 3.65625,-3.984375 h 0.859375 c 0.203125,0 0.296875,0 0.296875,-0.203125 0,-0.109375 -0.09375,-0.109375 -0.265625,-0.109375 H 3.71875 L 3.921875,-5.4375 c 0.046875,-0.203125 0.1875,-0.90625 0.25,-1.03125 0.078125,-0.1875 0.25,-0.34375 0.46875,-0.34375 0.03125,0 0.296875,0 0.484375,0.1875 -0.4375,0.03125 -0.546875,0.390625 -0.546875,0.53125 0,0.234375 0.1875,0.359375 0.375,0.359375 C 5.21875,-5.734375 5.5,-5.96875 5.5,-6.34375 c 0,-0.453125 -0.453125,-0.6875 -0.859375,-0.6875 -0.34375,0 -0.96875,0.1875 -1.265625,1.171875 -0.0625,0.203125 -0.09375,0.3125 -0.328125,1.5625 h -0.6875 c -0.203125,0 -0.3125,0 -0.3125,0.1875 0,0.125 0.09375,0.125 0.28125,0.125 h 0.65625 L 2.25,-0.046875 c -0.1875,0.96875 -0.359375,1.875 -0.875,1.875 -0.046875,0 -0.28125,0 -0.484375,-0.1875 C 1.359375,1.609375 1.453125,1.25 1.453125,1.109375 1.453125,0.875 1.265625,0.75 1.078125,0.75 0.8125,0.75 0.53125,0.984375 0.53125,1.359375 c 0,0.4375 0.4375,0.6875 0.84375,0.6875 0.546875,0 0.953125,-0.59375 1.125,-0.96875 0.328125,-0.625 0.546875,-1.828125 0.5625,-1.90625 z m 0,0"
           id="path1030" />
      </symbol>
      <symbol
         overflow="visible"
         id="symbol2380">
        <path
           style="stroke:none"
           d=""
           id="path3462" />
      </symbol>
      <symbol
         overflow="visible"
         id="symbol2514">
        <path
           style="stroke:none"
           d="m 2.3125,-4.21875 c 0,-0.140625 0,-0.359375 0.203125,-0.546875 0.21875,-0.1875 0.484375,-0.25 0.75,-0.265625 0.09375,0 0.15625,0 0.15625,-0.09375 0,-0.09375 -0.078125,-0.09375 -0.1875,-0.09375 -0.734375,0 -1.46875,0.3125 -1.46875,0.875 v 1.640625 c 0,0.171875 0,0.390625 -0.234375,0.59375 -0.171875,0.140625 -0.390625,0.25 -0.734375,0.265625 -0.09375,0.015625 -0.140625,0.015625 -0.140625,0.109375 0,0.078125 0.0625,0.078125 0.125,0.09375 0.828125,0.046875 0.96875,0.53125 0.984375,0.734375 v 1.625 c 0,0.1875 0,0.5 0.359375,0.75 0.390625,0.25 0.9375,0.265625 1.109375,0.265625 0.109375,0 0.1875,0 0.1875,-0.09375 0,-0.09375 -0.0625,-0.09375 -0.125,-0.09375 C 2.640625,1.515625 2.375,1.203125 2.328125,0.9375 2.3125,0.875 2.3125,0.828125 2.3125,0.71875 V -0.734375 C 2.3125,-0.9375 2.3125,-1.1875 2.125,-1.375 2.03125,-1.46875 1.875,-1.640625 1.484375,-1.734375 1.75,-1.8125 2.21875,-2 2.296875,-2.484375 2.3125,-2.515625 2.3125,-2.53125 2.3125,-2.765625 Z m 0,0"
           id="path4461" />
      </symbol>
      <symbol
         overflow="visible"
         id="symbol7685">
        <path
           style="stroke:none"
           d="m 2.3125,-0.78125 c 0,-0.171875 0,-0.390625 0.21875,-0.59375 0.171875,-0.140625 0.390625,-0.25 0.75,-0.265625 0.078125,-0.015625 0.140625,-0.015625 0.140625,-0.09375 0,-0.09375 -0.0625,-0.09375 -0.125,-0.109375 C 2.46875,-1.890625 2.3125,-2.375 2.3125,-2.578125 v -1.625 c 0,-0.1875 0,-0.5 -0.375,-0.75 C 1.546875,-5.203125 1,-5.21875 0.828125,-5.21875 c -0.09375,0 -0.171875,0 -0.171875,0.09375 0,0.09375 0.0625,0.09375 0.125,0.09375 C 1.421875,-5 1.6875,-4.6875 1.75,-4.421875 c 0.015625,0.0625 0.015625,0.109375 0.015625,0.21875 V -2.75 c 0,0.203125 0,0.453125 0.171875,0.640625 0.109375,0.09375 0.265625,0.265625 0.65625,0.375 -0.28125,0.0625 -0.75,0.25 -0.828125,0.734375 0,0.03125 0,0.046875 0,0.28125 v 1.453125 c 0,0.140625 0,0.359375 -0.21875,0.546875 -0.203125,0.1875 -0.46875,0.25 -0.75,0.265625 -0.09375,0 -0.140625,0 -0.140625,0.09375 0,0.09375 0.078125,0.09375 0.171875,0.09375 0.75,0 1.46875,-0.3125 1.484375,-0.875 z m 0,0"
           id="path3392" />
      </symbol>
      <symbol
         overflow="visible"
         id="symbol1020">
        <path
           style="stroke:none"
           d=""
           id="path8073" />
      </symbol>
      <symbol
         overflow="visible"
         id="symbol5879">
        <path
           style="stroke:none"
           d="M 3.59375,-2.21875 C 3.59375,-2.984375 3.5,-3.546875 3.1875,-4.03125 2.96875,-4.34375 2.53125,-4.625 1.984375,-4.625 c -1.625,0 -1.625,1.90625 -1.625,2.40625 0,0.5 0,2.359375 1.625,2.359375 1.609375,0 1.609375,-1.859375 1.609375,-2.359375 z M 1.984375,-0.0625 c -0.328125,0 -0.75,-0.1875 -0.890625,-0.75 C 1,-1.21875 1,-1.796875 1,-2.3125 1,-2.828125 1,-3.359375 1.09375,-3.734375 1.25,-4.28125 1.6875,-4.4375 1.984375,-4.4375 c 0.375,0 0.734375,0.234375 0.859375,0.640625 0.109375,0.375 0.125,0.875 0.125,1.484375 0,0.515625 0,1.03125 -0.09375,1.46875 -0.140625,0.640625 -0.609375,0.78125 -0.890625,0.78125 z m 0,0"
           id="path1951" />
      </symbol>
      <symbol
         overflow="visible"
         id="symbol8899">
        <path
           style="stroke:none"
           d="m 2.328125,-4.4375 c 0,-0.1875 0,-0.1875 -0.203125,-0.1875 -0.453125,0.4375 -1.078125,0.4375 -1.359375,0.4375 v 0.25 c 0.15625,0 0.625,0 1,-0.1875 v 3.546875 c 0,0.234375 0,0.328125 -0.6875,0.328125 H 0.8125 V 0 c 0.125,0 0.984375,-0.03125 1.234375,-0.03125 0.21875,0 1.09375,0.03125 1.25,0.03125 V -0.25 H 3.03125 c -0.703125,0 -0.703125,-0.09375 -0.703125,-0.328125 z m 0,0"
           id="path4182" />
      </symbol>
      <symbol
         overflow="visible"
         id="symbol1567">
        <path
           style="stroke:none"
           d="M 3.515625,-1.265625 H 3.28125 c -0.015625,0.15625 -0.09375,0.5625 -0.1875,0.625 C 3.046875,-0.59375 2.515625,-0.59375 2.40625,-0.59375 H 1.125 c 0.734375,-0.640625 0.984375,-0.84375 1.390625,-1.171875 0.515625,-0.40625 1,-0.84375 1,-1.5 0,-0.84375 -0.734375,-1.359375 -1.625,-1.359375 -0.859375,0 -1.453125,0.609375 -1.453125,1.25 0,0.34375 0.296875,0.390625 0.375,0.390625 0.15625,0 0.359375,-0.125 0.359375,-0.375 0,-0.125 -0.046875,-0.375 -0.40625,-0.375 C 0.984375,-4.21875 1.453125,-4.375 1.78125,-4.375 c 0.703125,0 1.0625,0.546875 1.0625,1.109375 0,0.609375 -0.4375,1.078125 -0.65625,1.328125 L 0.515625,-0.265625 C 0.4375,-0.203125 0.4375,-0.1875 0.4375,0 h 2.875 z m 0,0"
           id="path2054" />
      </symbol>
      <symbol
         overflow="visible"
         id="symbol1861">
        <path
           style="stroke:none"
           d="m 1.90625,-2.328125 c 0.546875,0 0.9375,0.375 0.9375,1.125 0,0.859375 -0.515625,1.125 -0.90625,1.125 -0.28125,0 -0.90625,-0.078125 -1.1875,-0.5 0.328125,0 0.40625,-0.234375 0.40625,-0.390625 0,-0.21875 -0.171875,-0.375 -0.390625,-0.375 -0.1875,0 -0.390625,0.125 -0.390625,0.40625 0,0.65625 0.71875,1.078125 1.5625,1.078125 0.96875,0 1.640625,-0.65625 1.640625,-1.34375 0,-0.546875 -0.4375,-1.09375 -1.203125,-1.25 0.71875,-0.265625 0.984375,-0.78125 0.984375,-1.21875 0,-0.546875 -0.625,-0.953125 -1.40625,-0.953125 -0.765625,0 -1.359375,0.375 -1.359375,0.9375 0,0.234375 0.15625,0.359375 0.359375,0.359375 0.21875,0 0.359375,-0.15625 0.359375,-0.34375 0,-0.203125 -0.140625,-0.359375 -0.359375,-0.375 0.25,-0.296875 0.71875,-0.375 0.984375,-0.375 0.3125,0 0.75,0.15625 0.75,0.75 0,0.296875 -0.09375,0.625 -0.28125,0.828125 -0.21875,0.265625 -0.421875,0.28125 -0.765625,0.3125 -0.171875,0.015625 -0.1875,0.015625 -0.21875,0.015625 -0.015625,0 -0.078125,0.015625 -0.078125,0.09375 0,0.09375 0.0625,0.09375 0.1875,0.09375 z m 0,0"
           id="path8403" />
      </symbol>
      <symbol
         overflow="visible"
         id="symbol1753">
        <path
           style="stroke:none"
           d=""
           id="path9897" />
      </symbol>
      <symbol
         overflow="visible"
         id="symbol5188">
        <path
           style="stroke:none"
           d="m 1.46875,-0.109375 c 0,0.375 -0.0625,0.828125 -0.546875,1.265625 C 0.90625,1.1875 0.875,1.21875 0.875,1.25 c 0,0.046875 0.0625,0.09375 0.09375,0.09375 0.109375,0 0.703125,-0.5625 0.703125,-1.390625 0,-0.421875 -0.171875,-0.75 -0.5,-0.75 -0.21875,0 -0.390625,0.171875 -0.390625,0.390625 C 0.78125,-0.1875 0.9375,0 1.1875,0 1.359375,0 1.46875,-0.109375 1.46875,-0.109375 Z m 0,0"
           id="path7538" />
      </symbol>
    </g>
    <g
       id="g9418">
      <symbol
         overflow="visible"
         id="symbol5127">
        <path
           style="stroke:none"
           d=""
           id="path3853" />
      </symbol>
      <symbol
         overflow="visible"
         id="symbol6285">
        <path
           style="stroke:none"
           d="M 1.78125,-1.140625 C 1.390625,-0.484375 1,-0.34375 0.5625,-0.3125 0.4375,-0.296875 0.34375,-0.296875 0.34375,-0.109375 0.34375,-0.046875 0.40625,0 0.484375,0 0.75,0 1.0625,-0.03125 1.328125,-0.03125 c 0.34375,0 0.6875,0.03125 1,0.03125 0.0625,0 0.1875,0 0.1875,-0.1875 0,-0.109375 -0.078125,-0.125 -0.15625,-0.125 -0.21875,-0.015625 -0.46875,-0.09375 -0.46875,-0.34375 0,-0.125 0.0625,-0.234375 0.140625,-0.375 l 0.765625,-1.265625 h 2.5 c 0.015625,0.203125 0.15625,1.5625 0.15625,1.65625 0,0.296875 -0.515625,0.328125 -0.71875,0.328125 C 4.59375,-0.3125 4.5,-0.3125 4.5,-0.109375 4.5,0 4.609375,0 4.640625,0 5.046875,0 5.46875,-0.03125 5.875,-0.03125 6.125,-0.03125 6.765625,0 7.015625,0 7.0625,0 7.1875,0 7.1875,-0.203125 7.1875,-0.3125 7.09375,-0.3125 6.953125,-0.3125 6.34375,-0.3125 6.34375,-0.375 6.3125,-0.671875 l -0.609375,-6.21875 c -0.015625,-0.203125 -0.015625,-0.25 -0.1875,-0.25 -0.15625,0 -0.203125,0.078125 -0.265625,0.171875 z M 2.984375,-2.609375 4.9375,-5.90625 5.265625,-2.609375 Z m 0,0"
           id="path6904" />
      </symbol>
      <symbol
         overflow="visible"
         id="symbol592">
        <path
           style="stroke:none"
           d=""
           id="path7641" />
      </symbol>
      <symbol
         overflow="visible"
         id="symbol9321">
        <path
           style="stroke:none"
           d="M 3.59375,-2.21875 C 3.59375,-2.984375 3.5,-3.546875 3.1875,-4.03125 2.96875,-4.34375 2.53125,-4.625 1.984375,-4.625 c -1.625,0 -1.625,1.90625 -1.625,2.40625 0,0.5 0,2.359375 1.625,2.359375 1.609375,0 1.609375,-1.859375 1.609375,-2.359375 z M 1.984375,-0.0625 c -0.328125,0 -0.75,-0.1875 -0.890625,-0.75 C 1,-1.21875 1,-1.796875 1,-2.3125 1,-2.828125 1,-3.359375 1.09375,-3.734375 1.25,-4.28125 1.6875,-4.4375 1.984375,-4.4375 c 0.375,0 0.734375,0.234375 0.859375,0.640625 0.109375,0.375 0.125,0.875 0.125,1.484375 0,0.515625 0,1.03125 -0.09375,1.46875 -0.140625,0.640625 -0.609375,0.78125 -0.890625,0.78125 z m 0,0"
           id="path1828" />
      </symbol>
    </g>
    <g
       id="g1371">
      <symbol
         overflow="visible"
         id="symbol4206">
        <path
           style="stroke:none"
           d=""
           id="path6796" />
      </symbol>
      <symbol
         overflow="visible"
         id="symbol7086">
        <path
           style="stroke:none"
           d="M 1.78125,-1.140625 C 1.390625,-0.484375 1,-0.34375 0.5625,-0.3125 0.4375,-0.296875 0.34375,-0.296875 0.34375,-0.109375 0.34375,-0.046875 0.40625,0 0.484375,0 0.75,0 1.0625,-0.03125 1.328125,-0.03125 c 0.34375,0 0.6875,0.03125 1,0.03125 0.0625,0 0.1875,0 0.1875,-0.1875 0,-0.109375 -0.078125,-0.125 -0.15625,-0.125 -0.21875,-0.015625 -0.46875,-0.09375 -0.46875,-0.34375 0,-0.125 0.0625,-0.234375 0.140625,-0.375 l 0.765625,-1.265625 h 2.5 c 0.015625,0.203125 0.15625,1.5625 0.15625,1.65625 0,0.296875 -0.515625,0.328125 -0.71875,0.328125 C 4.59375,-0.3125 4.5,-0.3125 4.5,-0.109375 4.5,0 4.609375,0 4.640625,0 5.046875,0 5.46875,-0.03125 5.875,-0.03125 6.125,-0.03125 6.765625,0 7.015625,0 7.0625,0 7.1875,0 7.1875,-0.203125 7.1875,-0.3125 7.09375,-0.3125 6.953125,-0.3125 6.34375,-0.3125 6.34375,-0.375 6.3125,-0.671875 l -0.609375,-6.21875 c -0.015625,-0.203125 -0.015625,-0.25 -0.1875,-0.25 -0.15625,0 -0.203125,0.078125 -0.265625,0.171875 z M 2.984375,-2.609375 4.9375,-5.90625 5.265625,-2.609375 Z m 0,0"
           id="path2286" />
      </symbol>
      <symbol
         overflow="visible"
         id="symbol8099">
        <path
           style="stroke:none"
           d=""
           id="path3712" />
      </symbol>
      <symbol
         overflow="visible"
         id="symbol7360">
        <path
           style="stroke:none"
           d="m 2.328125,-4.4375 c 0,-0.1875 0,-0.1875 -0.203125,-0.1875 -0.453125,0.4375 -1.078125,0.4375 -1.359375,0.4375 v 0.25 c 0.15625,0 0.625,0 1,-0.1875 v 3.546875 c 0,0.234375 0,0.328125 -0.6875,0.328125 H 0.8125 V 0 c 0.125,0 0.984375,-0.03125 1.234375,-0.03125 0.21875,0 1.09375,0.03125 1.25,0.03125 V -0.25 H 3.03125 c -0.703125,0 -0.703125,-0.09375 -0.703125,-0.328125 z m 0,0"
           id="path1652" />
      </symbol>
    </g>
    <g
       id="g2242">
      <symbol
         overflow="visible"
         id="symbol5938">
        <path
           style="stroke:none"
           d=""
           id="path4676" />
      </symbol>
      <symbol
         overflow="visible"
         id="symbol962">
        <path
           style="stroke:none"
           d="M 1.78125,-1.140625 C 1.390625,-0.484375 1,-0.34375 0.5625,-0.3125 0.4375,-0.296875 0.34375,-0.296875 0.34375,-0.109375 0.34375,-0.046875 0.40625,0 0.484375,0 0.75,0 1.0625,-0.03125 1.328125,-0.03125 c 0.34375,0 0.6875,0.03125 1,0.03125 0.0625,0 0.1875,0 0.1875,-0.1875 0,-0.109375 -0.078125,-0.125 -0.15625,-0.125 -0.21875,-0.015625 -0.46875,-0.09375 -0.46875,-0.34375 0,-0.125 0.0625,-0.234375 0.140625,-0.375 l 0.765625,-1.265625 h 2.5 c 0.015625,0.203125 0.15625,1.5625 0.15625,1.65625 0,0.296875 -0.515625,0.328125 -0.71875,0.328125 C 4.59375,-0.3125 4.5,-0.3125 4.5,-0.109375 4.5,0 4.609375,0 4.640625,0 5.046875,0 5.46875,-0.03125 5.875,-0.03125 6.125,-0.03125 6.765625,0 7.015625,0 7.0625,0 7.1875,0 7.1875,-0.203125 7.1875,-0.3125 7.09375,-0.3125 6.953125,-0.3125 6.34375,-0.3125 6.34375,-0.375 6.3125,-0.671875 l -0.609375,-6.21875 c -0.015625,-0.203125 -0.015625,-0.25 -0.1875,-0.25 -0.15625,0 -0.203125,0.078125 -0.265625,0.171875 z M 2.984375,-2.609375 4.9375,-5.90625 5.265625,-2.609375 Z m 0,0"
           id="path2830" />
      </symbol>
      <symbol
         overflow="visible"
         id="symbol5720">
        <path
           style="stroke:none"
           d=""
           id="path2611" />
      </symbol>
      <symbol
         overflow="visible"
         id="symbol4181">
        <path
           style="stroke:none"
           d="M 3.515625,-1.265625 H 3.28125 c -0.015625,0.15625 -0.09375,0.5625 -0.1875,0.625 C 3.046875,-0.59375 2.515625,-0.59375 2.40625,-0.59375 H 1.125 c 0.734375,-0.640625 0.984375,-0.84375 1.390625,-1.171875 0.515625,-0.40625 1,-0.84375 1,-1.5 0,-0.84375 -0.734375,-1.359375 -1.625,-1.359375 -0.859375,0 -1.453125,0.609375 -1.453125,1.25 0,0.34375 0.296875,0.390625 0.375,0.390625 0.15625,0 0.359375,-0.125 0.359375,-0.375 0,-0.125 -0.046875,-0.375 -0.40625,-0.375 C 0.984375,-4.21875 1.453125,-4.375 1.78125,-4.375 c 0.703125,0 1.0625,0.546875 1.0625,1.109375 0,0.609375 -0.4375,1.078125 -0.65625,1.328125 L 0.515625,-0.265625 C 0.4375,-0.203125 0.4375,-0.1875 0.4375,0 h 2.875 z m 0,0"
           id="path9004" />
      </symbol>
    </g>
    <g
       id="g9834">
      <symbol
         overflow="visible"
         id="symbol6101">
        <path
           style="stroke:none"
           d=""
           id="path2671" />
      </symbol>
      <symbol
         overflow="visible"
         id="symbol5781">
        <path
           style="stroke:none"
           d="M 1.78125,-1.140625 C 1.390625,-0.484375 1,-0.34375 0.5625,-0.3125 0.4375,-0.296875 0.34375,-0.296875 0.34375,-0.109375 0.34375,-0.046875 0.40625,0 0.484375,0 0.75,0 1.0625,-0.03125 1.328125,-0.03125 c 0.34375,0 0.6875,0.03125 1,0.03125 0.0625,0 0.1875,0 0.1875,-0.1875 0,-0.109375 -0.078125,-0.125 -0.15625,-0.125 -0.21875,-0.015625 -0.46875,-0.09375 -0.46875,-0.34375 0,-0.125 0.0625,-0.234375 0.140625,-0.375 l 0.765625,-1.265625 h 2.5 c 0.015625,0.203125 0.15625,1.5625 0.15625,1.65625 0,0.296875 -0.515625,0.328125 -0.71875,0.328125 C 4.59375,-0.3125 4.5,-0.3125 4.5,-0.109375 4.5,0 4.609375,0 4.640625,0 5.046875,0 5.46875,-0.03125 5.875,-0.03125 6.125,-0.03125 6.765625,0 7.015625,0 7.0625,0 7.1875,0 7.1875,-0.203125 7.1875,-0.3125 7.09375,-0.3125 6.953125,-0.3125 6.34375,-0.3125 6.34375,-0.375 6.3125,-0.671875 l -0.609375,-6.21875 c -0.015625,-0.203125 -0.015625,-0.25 -0.1875,-0.25 -0.15625,0 -0.203125,0.078125 -0.265625,0.171875 z M 2.984375,-2.609375 4.9375,-5.90625 5.265625,-2.609375 Z m 0,0"
           id="path6641" />
      </symbol>
      <symbol
         overflow="visible"
         id="symbol8574">
        <path
           style="stroke:none"
           d=""
           id="path8556" />
      </symbol>
      <symbol
         overflow="visible"
         id="symbol50">
        <path
           style="stroke:none"
           d="m 1.90625,-2.328125 c 0.546875,0 0.9375,0.375 0.9375,1.125 0,0.859375 -0.515625,1.125 -0.90625,1.125 -0.28125,0 -0.90625,-0.078125 -1.1875,-0.5 0.328125,0 0.40625,-0.234375 0.40625,-0.390625 0,-0.21875 -0.171875,-0.375 -0.390625,-0.375 -0.1875,0 -0.390625,0.125 -0.390625,0.40625 0,0.65625 0.71875,1.078125 1.5625,1.078125 0.96875,0 1.640625,-0.65625 1.640625,-1.34375 0,-0.546875 -0.4375,-1.09375 -1.203125,-1.25 0.71875,-0.265625 0.984375,-0.78125 0.984375,-1.21875 0,-0.546875 -0.625,-0.953125 -1.40625,-0.953125 -0.765625,0 -1.359375,0.375 -1.359375,0.9375 0,0.234375 0.15625,0.359375 0.359375,0.359375 0.21875,0 0.359375,-0.15625 0.359375,-0.34375 0,-0.203125 -0.140625,-0.359375 -0.359375,-0.375 0.25,-0.296875 0.71875,-0.375 0.984375,-0.375 0.3125,0 0.75,0.15625 0.75,0.75 0,0.296875 -0.09375,0.625 -0.28125,0.828125 -0.21875,0.265625 -0.421875,0.28125 -0.765625,0.3125 -0.171875,0.015625 -0.1875,0.015625 -0.21875,0.015625 -0.015625,0 -0.078125,0.015625 -0.078125,0.09375 0,0.09375 0.0625,0.09375 0.1875,0.09375 z m 0,0"
           id="path984" />
      </symbol>
    </g>
  </defs>
  <g
     inkscape:label="Layer 1"
     inkscape:groupmode="layer"
     id="layer1"
     transform="translate(176.83324,-46.404973)">
    <ellipse
       style="fill:none;fill-opacity:0.318508;stroke:#000000;stroke-width:1;stroke-miterlimit:4;stroke-dasharray:none;stroke-opacity:1"
       id="path2508"
       cx="-180.55759"
       cy="32.138538"
       rx="53.884937"
       ry="99.518524"
       transform="rotate(-49.44364)" />
    <ellipse
       style="fill:none;fill-opacity:0.318508;stroke:#000000;stroke-width:1;stroke-miterlimit:4;stroke-dasharray:none;stroke-opacity:1"
       id="path2508-5"
       cx="119.54229"
       cy="-102.71387"
       rx="53.884937"
       ry="99.518524"
       transform="matrix(0.65019572,0.75976676,0.75976676,-0.65019572,0,0)" />
    <ellipse
       style="fill:none;fill-opacity:0.318508;stroke:#000000;stroke-width:1;stroke-miterlimit:4;stroke-dasharray:none;stroke-opacity:1"
       id="path2508-5-6"
       transform="matrix(0.662855,0.74874779,0.74874779,-0.662855,0,0)"
       ry="96.808762"
       rx="43.219547"
       cy="-123.39072"
       cx="68.002785" />
    <ellipse
       style="fill:none;fill-opacity:0.318508;stroke:#000000;stroke-width:1;stroke-miterlimit:4;stroke-dasharray:none;stroke-opacity:1"
       id="path2508-5-6-2"
       cx="-129.46967"
       cy="56.694424"
       rx="44.001919"
       ry="96.808762"
       transform="rotate(-48.482024)" />
    <g
       inkscape:label=""
       transform="translate(-262.99345,-5.8393257)"
       id="g1306">
      <g
         id="g9907">
        <g
           style="fill:#000000;fill-opacity:1"
           id="g9479">
          <use
             xlink:href="#symbol6285"
             x="91.925003"
             y="81.962997"
             id="use7567"
             width="100%"
             height="100%" />
        </g>
        <g
           style="fill:#000000;fill-opacity:1"
           id="g9680">
          <use
             xlink:href="#symbol9321"
             x="99.397003"
             y="83.457001"
             id="use50"
             width="100%"
             height="100%" />
        </g>
      </g>
    </g>
    <g
       inkscape:label=""
       transform="translate(-200.21158,-28.417399)"
       id="g1456">
      <g
         id="g5370">
        <g
           style="fill:#000000;fill-opacity:1"
           id="g9287">
          <use
             xlink:href="#symbol7086"
             x="91.925003"
             y="81.962997"
             id="use7464"
             width="100%"
             height="100%" />
        </g>
        <g
           style="fill:#000000;fill-opacity:1"
           id="g6960">
          <use
             xlink:href="#symbol7360"
             x="99.397003"
             y="83.457001"
             id="use6525"
             width="100%"
             height="100%" />
        </g>
      </g>
    </g>
    <g
       inkscape:label=""
       transform="translate(-73.43042,-27.000745)"
       id="g1631">
      <g
         id="g7745">
        <g
           style="fill:#000000;fill-opacity:1"
           id="g5388">
          <use
             xlink:href="#symbol962"
             x="91.925003"
             y="81.962997"
             id="use5437"
             width="100%"
             height="100%" />
        </g>
        <g
           style="fill:#000000;fill-opacity:1"
           id="g2534">
          <use
             xlink:href="#symbol4181"
             x="99.397003"
             y="83.457001"
             id="use8044"
             width="100%"
             height="100%" />
        </g>
      </g>
    </g>
    <g
       inkscape:label=""
       transform="translate(-15.425443,0.88276595)"
       id="g1836">
      <g
         id="g6681">
        <g
           style="fill:#000000;fill-opacity:1"
           id="g2557">
          <use
             xlink:href="#symbol5781"
             x="91.925003"
             y="81.962997"
             id="use8020"
             width="100%"
             height="100%" />
        </g>
        <g
           style="fill:#000000;fill-opacity:1"
           id="g3226">
          <use
             xlink:href="#symbol50"
             x="99.397003"
             y="83.457001"
             id="use8174"
             width="100%"
             height="100%" />
        </g>
      </g>
    </g>
  </g>
</svg>
