<?xml version="1.0" encoding="UTF-8" standalone="no"?>
<!-- Created with Inkscape (http://www.inkscape.org/) -->

<svg
   width="594.58307mm"
   height="411.00204mm"
   viewBox="0 0 594.58306 411.00204"
   version="1.1"
   id="svg5"
   inkscape:version="1.1 (c4e8f9ed74, 2021-05-24)"
   sodipodi:docname="three_fhat_example.svg"
   xmlns:inkscape="http://www.inkscape.org/namespaces/inkscape"
   xmlns:sodipodi="http://sodipodi.sourceforge.net/DTD/sodipodi-0.dtd"
   xmlns:xlink="http://www.w3.org/1999/xlink"
   xmlns="http://www.w3.org/2000/svg"
   xmlns:svg="http://www.w3.org/2000/svg">
  <sodipodi:namedview
     id="namedview7"
     pagecolor="#ffffff"
     bordercolor="#cccccc"
     borderopacity="1"
     inkscape:pageshadow="0"
     inkscape:pageopacity="1"
     inkscape:pagecheckerboard="0"
     inkscape:document-units="mm"
     showgrid="false"
     inkscape:zoom="0.3061451"
     inkscape:cx="957.06252"
     inkscape:cy="769.24309"
     inkscape:window-width="1366"
     inkscape:window-height="694"
     inkscape:window-x="1366"
     inkscape:window-y="0"
     inkscape:window-maximized="1"
     inkscape:current-layer="layer1" />
  <defs
     id="defs2">
    <g
       id="g8659">
      <symbol
         overflow="visible"
         id="symbol4431">
        <path
           style="stroke:none"
           d=""
           id="path6544" />
      </symbol>
      <symbol
         overflow="visible"
         id="symbol5146">
        <path
           style="stroke:none"
           d="m 3.65625,-3.984375 h 0.859375 c 0.203125,0 0.296875,0 0.296875,-0.203125 0,-0.109375 -0.09375,-0.109375 -0.265625,-0.109375 H 3.71875 L 3.921875,-5.4375 c 0.046875,-0.203125 0.1875,-0.90625 0.25,-1.03125 0.078125,-0.1875 0.25,-0.34375 0.46875,-0.34375 0.03125,0 0.296875,0 0.484375,0.1875 -0.4375,0.03125 -0.546875,0.390625 -0.546875,0.53125 0,0.234375 0.1875,0.359375 0.375,0.359375 C 5.21875,-5.734375 5.5,-5.96875 5.5,-6.34375 c 0,-0.453125 -0.453125,-0.6875 -0.859375,-0.6875 -0.34375,0 -0.96875,0.1875 -1.265625,1.171875 -0.0625,0.203125 -0.09375,0.3125 -0.328125,1.5625 h -0.6875 c -0.203125,0 -0.3125,0 -0.3125,0.1875 0,0.125 0.09375,0.125 0.28125,0.125 h 0.65625 L 2.25,-0.046875 c -0.1875,0.96875 -0.359375,1.875 -0.875,1.875 -0.046875,0 -0.28125,0 -0.484375,-0.1875 C 1.359375,1.609375 1.453125,1.25 1.453125,1.109375 1.453125,0.875 1.265625,0.75 1.078125,0.75 0.8125,0.75 0.53125,0.984375 0.53125,1.359375 c 0,0.4375 0.4375,0.6875 0.84375,0.6875 0.546875,0 0.953125,-0.59375 1.125,-0.96875 0.328125,-0.625 0.546875,-1.828125 0.5625,-1.90625 z m 0,0"
           id="path1030" />
      </symbol>
      <symbol
         overflow="visible"
         id="symbol2380">
        <path
           style="stroke:none"
           d=""
           id="path3462" />
      </symbol>
      <symbol
         overflow="visible"
         id="symbol2514">
        <path
           style="stroke:none"
           d="m 2.3125,-4.21875 c 0,-0.140625 0,-0.359375 0.203125,-0.546875 0.21875,-0.1875 0.484375,-0.25 0.75,-0.265625 0.09375,0 0.15625,0 0.15625,-0.09375 0,-0.09375 -0.078125,-0.09375 -0.1875,-0.09375 -0.734375,0 -1.46875,0.3125 -1.46875,0.875 v 1.640625 c 0,0.171875 0,0.390625 -0.234375,0.59375 -0.171875,0.140625 -0.390625,0.25 -0.734375,0.265625 -0.09375,0.015625 -0.140625,0.015625 -0.140625,0.109375 0,0.078125 0.0625,0.078125 0.125,0.09375 0.828125,0.046875 0.96875,0.53125 0.984375,0.734375 v 1.625 c 0,0.1875 0,0.5 0.359375,0.75 0.390625,0.25 0.9375,0.265625 1.109375,0.265625 0.109375,0 0.1875,0 0.1875,-0.09375 0,-0.09375 -0.0625,-0.09375 -0.125,-0.09375 C 2.640625,1.515625 2.375,1.203125 2.328125,0.9375 2.3125,0.875 2.3125,0.828125 2.3125,0.71875 V -0.734375 C 2.3125,-0.9375 2.3125,-1.1875 2.125,-1.375 2.03125,-1.46875 1.875,-1.640625 1.484375,-1.734375 1.75,-1.8125 2.21875,-2 2.296875,-2.484375 2.3125,-2.515625 2.3125,-2.53125 2.3125,-2.765625 Z m 0,0"
           id="path4461" />
      </symbol>
      <symbol
         overflow="visible"
         id="symbol7685">
        <path
           style="stroke:none"
           d="m 2.3125,-0.78125 c 0,-0.171875 0,-0.390625 0.21875,-0.59375 0.171875,-0.140625 0.390625,-0.25 0.75,-0.265625 0.078125,-0.015625 0.140625,-0.015625 0.140625,-0.09375 0,-0.09375 -0.0625,-0.09375 -0.125,-0.109375 C 2.46875,-1.890625 2.3125,-2.375 2.3125,-2.578125 v -1.625 c 0,-0.1875 0,-0.5 -0.375,-0.75 C 1.546875,-5.203125 1,-5.21875 0.828125,-5.21875 c -0.09375,0 -0.171875,0 -0.171875,0.09375 0,0.09375 0.0625,0.09375 0.125,0.09375 C 1.421875,-5 1.6875,-4.6875 1.75,-4.421875 c 0.015625,0.0625 0.015625,0.109375 0.015625,0.21875 V -2.75 c 0,0.203125 0,0.453125 0.171875,0.640625 0.109375,0.09375 0.265625,0.265625 0.65625,0.375 -0.28125,0.0625 -0.75,0.25 -0.828125,0.734375 0,0.03125 0,0.046875 0,0.28125 v 1.453125 c 0,0.140625 0,0.359375 -0.21875,0.546875 -0.203125,0.1875 -0.46875,0.25 -0.75,0.265625 -0.09375,0 -0.140625,0 -0.140625,0.09375 0,0.09375 0.078125,0.09375 0.171875,0.09375 0.75,0 1.46875,-0.3125 1.484375,-0.875 z m 0,0"
           id="path3392" />
      </symbol>
      <symbol
         overflow="visible"
         id="symbol1020">
        <path
           style="stroke:none"
           d=""
           id="path8073" />
      </symbol>
      <symbol
         overflow="visible"
         id="symbol5879">
        <path
           style="stroke:none"
           d="M 3.59375,-2.21875 C 3.59375,-2.984375 3.5,-3.546875 3.1875,-4.03125 2.96875,-4.34375 2.53125,-4.625 1.984375,-4.625 c -1.625,0 -1.625,1.90625 -1.625,2.40625 0,0.5 0,2.359375 1.625,2.359375 1.609375,0 1.609375,-1.859375 1.609375,-2.359375 z M 1.984375,-0.0625 c -0.328125,0 -0.75,-0.1875 -0.890625,-0.75 C 1,-1.21875 1,-1.796875 1,-2.3125 1,-2.828125 1,-3.359375 1.09375,-3.734375 1.25,-4.28125 1.6875,-4.4375 1.984375,-4.4375 c 0.375,0 0.734375,0.234375 0.859375,0.640625 0.109375,0.375 0.125,0.875 0.125,1.484375 0,0.515625 0,1.03125 -0.09375,1.46875 -0.140625,0.640625 -0.609375,0.78125 -0.890625,0.78125 z m 0,0"
           id="path1951" />
      </symbol>
      <symbol
         overflow="visible"
         id="symbol8899">
        <path
           style="stroke:none"
           d="m 2.328125,-4.4375 c 0,-0.1875 0,-0.1875 -0.203125,-0.1875 -0.453125,0.4375 -1.078125,0.4375 -1.359375,0.4375 v 0.25 c 0.15625,0 0.625,0 1,-0.1875 v 3.546875 c 0,0.234375 0,0.328125 -0.6875,0.328125 H 0.8125 V 0 c 0.125,0 0.984375,-0.03125 1.234375,-0.03125 0.21875,0 1.09375,0.03125 1.25,0.03125 V -0.25 H 3.03125 c -0.703125,0 -0.703125,-0.09375 -0.703125,-0.328125 z m 0,0"
           id="path4182" />
      </symbol>
      <symbol
         overflow="visible"
         id="symbol1567">
        <path
           style="stroke:none"
           d="M 3.515625,-1.265625 H 3.28125 c -0.015625,0.15625 -0.09375,0.5625 -0.1875,0.625 C 3.046875,-0.59375 2.515625,-0.59375 2.40625,-0.59375 H 1.125 c 0.734375,-0.640625 0.984375,-0.84375 1.390625,-1.171875 0.515625,-0.40625 1,-0.84375 1,-1.5 0,-0.84375 -0.734375,-1.359375 -1.625,-1.359375 -0.859375,0 -1.453125,0.609375 -1.453125,1.25 0,0.34375 0.296875,0.390625 0.375,0.390625 0.15625,0 0.359375,-0.125 0.359375,-0.375 0,-0.125 -0.046875,-0.375 -0.40625,-0.375 C 0.984375,-4.21875 1.453125,-4.375 1.78125,-4.375 c 0.703125,0 1.0625,0.546875 1.0625,1.109375 0,0.609375 -0.4375,1.078125 -0.65625,1.328125 L 0.515625,-0.265625 C 0.4375,-0.203125 0.4375,-0.1875 0.4375,0 h 2.875 z m 0,0"
           id="path2054" />
      </symbol>
      <symbol
         overflow="visible"
         id="symbol1861">
        <path
           style="stroke:none"
           d="m 1.90625,-2.328125 c 0.546875,0 0.9375,0.375 0.9375,1.125 0,0.859375 -0.515625,1.125 -0.90625,1.125 -0.28125,0 -0.90625,-0.078125 -1.1875,-0.5 0.328125,0 0.40625,-0.234375 0.40625,-0.390625 0,-0.21875 -0.171875,-0.375 -0.390625,-0.375 -0.1875,0 -0.390625,0.125 -0.390625,0.40625 0,0.65625 0.71875,1.078125 1.5625,1.078125 0.96875,0 1.640625,-0.65625 1.640625,-1.34375 0,-0.546875 -0.4375,-1.09375 -1.203125,-1.25 0.71875,-0.265625 0.984375,-0.78125 0.984375,-1.21875 0,-0.546875 -0.625,-0.953125 -1.40625,-0.953125 -0.765625,0 -1.359375,0.375 -1.359375,0.9375 0,0.234375 0.15625,0.359375 0.359375,0.359375 0.21875,0 0.359375,-0.15625 0.359375,-0.34375 0,-0.203125 -0.140625,-0.359375 -0.359375,-0.375 0.25,-0.296875 0.71875,-0.375 0.984375,-0.375 0.3125,0 0.75,0.15625 0.75,0.75 0,0.296875 -0.09375,0.625 -0.28125,0.828125 -0.21875,0.265625 -0.421875,0.28125 -0.765625,0.3125 -0.171875,0.015625 -0.1875,0.015625 -0.21875,0.015625 -0.015625,0 -0.078125,0.015625 -0.078125,0.09375 0,0.09375 0.0625,0.09375 0.1875,0.09375 z m 0,0"
           id="path8403" />
      </symbol>
      <symbol
         overflow="visible"
         id="symbol1753">
        <path
           style="stroke:none"
           d=""
           id="path9897" />
      </symbol>
      <symbol
         overflow="visible"
         id="symbol5188">
        <path
           style="stroke:none"
           d="m 1.46875,-0.109375 c 0,0.375 -0.0625,0.828125 -0.546875,1.265625 C 0.90625,1.1875 0.875,1.21875 0.875,1.25 c 0,0.046875 0.0625,0.09375 0.09375,0.09375 0.109375,0 0.703125,-0.5625 0.703125,-1.390625 0,-0.421875 -0.171875,-0.75 -0.5,-0.75 -0.21875,0 -0.390625,0.171875 -0.390625,0.390625 C 0.78125,-0.1875 0.9375,0 1.1875,0 1.359375,0 1.46875,-0.109375 1.46875,-0.109375 Z m 0,0"
           id="path7538" />
      </symbol>
    </g>
    <g
       id="g9418">
      <symbol
         overflow="visible"
         id="symbol5127">
        <path
           style="stroke:none"
           d=""
           id="path3853" />
      </symbol>
      <symbol
         overflow="visible"
         id="symbol6285">
        <path
           style="stroke:none"
           d="M 1.78125,-1.140625 C 1.390625,-0.484375 1,-0.34375 0.5625,-0.3125 0.4375,-0.296875 0.34375,-0.296875 0.34375,-0.109375 0.34375,-0.046875 0.40625,0 0.484375,0 0.75,0 1.0625,-0.03125 1.328125,-0.03125 c 0.34375,0 0.6875,0.03125 1,0.03125 0.0625,0 0.1875,0 0.1875,-0.1875 0,-0.109375 -0.078125,-0.125 -0.15625,-0.125 -0.21875,-0.015625 -0.46875,-0.09375 -0.46875,-0.34375 0,-0.125 0.0625,-0.234375 0.140625,-0.375 l 0.765625,-1.265625 h 2.5 c 0.015625,0.203125 0.15625,1.5625 0.15625,1.65625 0,0.296875 -0.515625,0.328125 -0.71875,0.328125 C 4.59375,-0.3125 4.5,-0.3125 4.5,-0.109375 4.5,0 4.609375,0 4.640625,0 5.046875,0 5.46875,-0.03125 5.875,-0.03125 6.125,-0.03125 6.765625,0 7.015625,0 7.0625,0 7.1875,0 7.1875,-0.203125 7.1875,-0.3125 7.09375,-0.3125 6.953125,-0.3125 6.34375,-0.3125 6.34375,-0.375 6.3125,-0.671875 l -0.609375,-6.21875 c -0.015625,-0.203125 -0.015625,-0.25 -0.1875,-0.25 -0.15625,0 -0.203125,0.078125 -0.265625,0.171875 z M 2.984375,-2.609375 4.9375,-5.90625 5.265625,-2.609375 Z m 0,0"
           id="path6904" />
      </symbol>
      <symbol
         overflow="visible"
         id="symbol592">
        <path
           style="stroke:none"
           d=""
           id="path7641" />
      </symbol>
      <symbol
         overflow="visible"
         id="symbol9321">
        <path
           style="stroke:none"
           d="M 3.59375,-2.21875 C 3.59375,-2.984375 3.5,-3.546875 3.1875,-4.03125 2.96875,-4.34375 2.53125,-4.625 1.984375,-4.625 c -1.625,0 -1.625,1.90625 -1.625,2.40625 0,0.5 0,2.359375 1.625,2.359375 1.609375,0 1.609375,-1.859375 1.609375,-2.359375 z M 1.984375,-0.0625 c -0.328125,0 -0.75,-0.1875 -0.890625,-0.75 C 1,-1.21875 1,-1.796875 1,-2.3125 1,-2.828125 1,-3.359375 1.09375,-3.734375 1.25,-4.28125 1.6875,-4.4375 1.984375,-4.4375 c 0.375,0 0.734375,0.234375 0.859375,0.640625 0.109375,0.375 0.125,0.875 0.125,1.484375 0,0.515625 0,1.03125 -0.09375,1.46875 -0.140625,0.640625 -0.609375,0.78125 -0.890625,0.78125 z m 0,0"
           id="path1828" />
      </symbol>
    </g>
    <g
       id="g1371">
      <symbol
         overflow="visible"
         id="symbol4206">
        <path
           style="stroke:none"
           d=""
           id="path6796" />
      </symbol>
      <symbol
         overflow="visible"
         id="symbol7086">
        <path
           style="stroke:none"
           d="M 1.78125,-1.140625 C 1.390625,-0.484375 1,-0.34375 0.5625,-0.3125 0.4375,-0.296875 0.34375,-0.296875 0.34375,-0.109375 0.34375,-0.046875 0.40625,0 0.484375,0 0.75,0 1.0625,-0.03125 1.328125,-0.03125 c 0.34375,0 0.6875,0.03125 1,0.03125 0.0625,0 0.1875,0 0.1875,-0.1875 0,-0.109375 -0.078125,-0.125 -0.15625,-0.125 -0.21875,-0.015625 -0.46875,-0.09375 -0.46875,-0.34375 0,-0.125 0.0625,-0.234375 0.140625,-0.375 l 0.765625,-1.265625 h 2.5 c 0.015625,0.203125 0.15625,1.5625 0.15625,1.65625 0,0.296875 -0.515625,0.328125 -0.71875,0.328125 C 4.59375,-0.3125 4.5,-0.3125 4.5,-0.109375 4.5,0 4.609375,0 4.640625,0 5.046875,0 5.46875,-0.03125 5.875,-0.03125 6.125,-0.03125 6.765625,0 7.015625,0 7.0625,0 7.1875,0 7.1875,-0.203125 7.1875,-0.3125 7.09375,-0.3125 6.953125,-0.3125 6.34375,-0.3125 6.34375,-0.375 6.3125,-0.671875 l -0.609375,-6.21875 c -0.015625,-0.203125 -0.015625,-0.25 -0.1875,-0.25 -0.15625,0 -0.203125,0.078125 -0.265625,0.171875 z M 2.984375,-2.609375 4.9375,-5.90625 5.265625,-2.609375 Z m 0,0"
           id="path2286" />
      </symbol>
      <symbol
         overflow="visible"
         id="symbol8099">
        <path
           style="stroke:none"
           d=""
           id="path3712" />
      </symbol>
      <symbol
         overflow="visible"
         id="symbol7360">
        <path
           style="stroke:none"
           d="m 2.328125,-4.4375 c 0,-0.1875 0,-0.1875 -0.203125,-0.1875 -0.453125,0.4375 -1.078125,0.4375 -1.359375,0.4375 v 0.25 c 0.15625,0 0.625,0 1,-0.1875 v 3.546875 c 0,0.234375 0,0.328125 -0.6875,0.328125 H 0.8125 V 0 c 0.125,0 0.984375,-0.03125 1.234375,-0.03125 0.21875,0 1.09375,0.03125 1.25,0.03125 V -0.25 H 3.03125 c -0.703125,0 -0.703125,-0.09375 -0.703125,-0.328125 z m 0,0"
           id="path1652" />
      </symbol>
    </g>
    <g
       id="g2242">
      <symbol
         overflow="visible"
         id="symbol5938">
        <path
           style="stroke:none"
           d=""
           id="path4676" />
      </symbol>
      <symbol
         overflow="visible"
         id="symbol962">
        <path
           style="stroke:none"
           d="M 1.78125,-1.140625 C 1.390625,-0.484375 1,-0.34375 0.5625,-0.3125 0.4375,-0.296875 0.34375,-0.296875 0.34375,-0.109375 0.34375,-0.046875 0.40625,0 0.484375,0 0.75,0 1.0625,-0.03125 1.328125,-0.03125 c 0.34375,0 0.6875,0.03125 1,0.03125 0.0625,0 0.1875,0 0.1875,-0.1875 0,-0.109375 -0.078125,-0.125 -0.15625,-0.125 -0.21875,-0.015625 -0.46875,-0.09375 -0.46875,-0.34375 0,-0.125 0.0625,-0.234375 0.140625,-0.375 l 0.765625,-1.265625 h 2.5 c 0.015625,0.203125 0.15625,1.5625 0.15625,1.65625 0,0.296875 -0.515625,0.328125 -0.71875,0.328125 C 4.59375,-0.3125 4.5,-0.3125 4.5,-0.109375 4.5,0 4.609375,0 4.640625,0 5.046875,0 5.46875,-0.03125 5.875,-0.03125 6.125,-0.03125 6.765625,0 7.015625,0 7.0625,0 7.1875,0 7.1875,-0.203125 7.1875,-0.3125 7.09375,-0.3125 6.953125,-0.3125 6.34375,-0.3125 6.34375,-0.375 6.3125,-0.671875 l -0.609375,-6.21875 c -0.015625,-0.203125 -0.015625,-0.25 -0.1875,-0.25 -0.15625,0 -0.203125,0.078125 -0.265625,0.171875 z M 2.984375,-2.609375 4.9375,-5.90625 5.265625,-2.609375 Z m 0,0"
           id="path2830" />
      </symbol>
      <symbol
         overflow="visible"
         id="symbol5720">
        <path
           style="stroke:none"
           d=""
           id="path2611" />
      </symbol>
      <symbol
         overflow="visible"
         id="symbol4181">
        <path
           style="stroke:none"
           d="M 3.515625,-1.265625 H 3.28125 c -0.015625,0.15625 -0.09375,0.5625 -0.1875,0.625 C 3.046875,-0.59375 2.515625,-0.59375 2.40625,-0.59375 H 1.125 c 0.734375,-0.640625 0.984375,-0.84375 1.390625,-1.171875 0.515625,-0.40625 1,-0.84375 1,-1.5 0,-0.84375 -0.734375,-1.359375 -1.625,-1.359375 -0.859375,0 -1.453125,0.609375 -1.453125,1.25 0,0.34375 0.296875,0.390625 0.375,0.390625 0.15625,0 0.359375,-0.125 0.359375,-0.375 0,-0.125 -0.046875,-0.375 -0.40625,-0.375 C 0.984375,-4.21875 1.453125,-4.375 1.78125,-4.375 c 0.703125,0 1.0625,0.546875 1.0625,1.109375 0,0.609375 -0.4375,1.078125 -0.65625,1.328125 L 0.515625,-0.265625 C 0.4375,-0.203125 0.4375,-0.1875 0.4375,0 h 2.875 z m 0,0"
           id="path9004" />
      </symbol>
    </g>
    <g
       id="g9834">
      <symbol
         overflow="visible"
         id="symbol6101">
        <path
           style="stroke:none"
           d=""
           id="path2671" />
      </symbol>
      <symbol
         overflow="visible"
         id="symbol5781">
        <path
           style="stroke:none"
           d="M 1.78125,-1.140625 C 1.390625,-0.484375 1,-0.34375 0.5625,-0.3125 0.4375,-0.296875 0.34375,-0.296875 0.34375,-0.109375 0.34375,-0.046875 0.40625,0 0.484375,0 0.75,0 1.0625,-0.03125 1.328125,-0.03125 c 0.34375,0 0.6875,0.03125 1,0.03125 0.0625,0 0.1875,0 0.1875,-0.1875 0,-0.109375 -0.078125,-0.125 -0.15625,-0.125 -0.21875,-0.015625 -0.46875,-0.09375 -0.46875,-0.34375 0,-0.125 0.0625,-0.234375 0.140625,-0.375 l 0.765625,-1.265625 h 2.5 c 0.015625,0.203125 0.15625,1.5625 0.15625,1.65625 0,0.296875 -0.515625,0.328125 -0.71875,0.328125 C 4.59375,-0.3125 4.5,-0.3125 4.5,-0.109375 4.5,0 4.609375,0 4.640625,0 5.046875,0 5.46875,-0.03125 5.875,-0.03125 6.125,-0.03125 6.765625,0 7.015625,0 7.0625,0 7.1875,0 7.1875,-0.203125 7.1875,-0.3125 7.09375,-0.3125 6.953125,-0.3125 6.34375,-0.3125 6.34375,-0.375 6.3125,-0.671875 l -0.609375,-6.21875 c -0.015625,-0.203125 -0.015625,-0.25 -0.1875,-0.25 -0.15625,0 -0.203125,0.078125 -0.265625,0.171875 z M 2.984375,-2.609375 4.9375,-5.90625 5.265625,-2.609375 Z m 0,0"
           id="path6641" />
      </symbol>
      <symbol
         overflow="visible"
         id="symbol8574">
        <path
           style="stroke:none"
           d=""
           id="path8556" />
      </symbol>
      <symbol
         overflow="visible"
         id="symbol50">
        <path
           style="stroke:none"
           d="m 1.90625,-2.328125 c 0.546875,0 0.9375,0.375 0.9375,1.125 0,0.859375 -0.515625,1.125 -0.90625,1.125 -0.28125,0 -0.90625,-0.078125 -1.1875,-0.5 0.328125,0 0.40625,-0.234375 0.40625,-0.390625 0,-0.21875 -0.171875,-0.375 -0.390625,-0.375 -0.1875,0 -0.390625,0.125 -0.390625,0.40625 0,0.65625 0.71875,1.078125 1.5625,1.078125 0.96875,0 1.640625,-0.65625 1.640625,-1.34375 0,-0.546875 -0.4375,-1.09375 -1.203125,-1.25 0.71875,-0.265625 0.984375,-0.78125 0.984375,-1.21875 0,-0.546875 -0.625,-0.953125 -1.40625,-0.953125 -0.765625,0 -1.359375,0.375 -1.359375,0.9375 0,0.234375 0.15625,0.359375 0.359375,0.359375 0.21875,0 0.359375,-0.15625 0.359375,-0.34375 0,-0.203125 -0.140625,-0.359375 -0.359375,-0.375 0.25,-0.296875 0.71875,-0.375 0.984375,-0.375 0.3125,0 0.75,0.15625 0.75,0.75 0,0.296875 -0.09375,0.625 -0.28125,0.828125 -0.21875,0.265625 -0.421875,0.28125 -0.765625,0.3125 -0.171875,0.015625 -0.1875,0.015625 -0.21875,0.015625 -0.015625,0 -0.078125,0.015625 -0.078125,0.09375 0,0.09375 0.0625,0.09375 0.1875,0.09375 z m 0,0"
           id="path984" />
      </symbol>
    </g>
    <g
       id="g7829">
      <symbol
         overflow="visible"
         id="symbol9294">
        <path
           style="stroke:none"
           d=""
           id="path5867" />
      </symbol>
      <symbol
         overflow="visible"
         id="symbol9200">
        <path
           style="stroke:none"
           d="M 2.5,-6.921875 1.15625,-5.5625 1.328125,-5.390625 2.5,-6.40625 3.640625,-5.390625 3.8125,-5.5625 Z m 0,0"
           id="path9621" />
      </symbol>
      <symbol
         overflow="visible"
         id="symbol5428">
        <path
           style="stroke:none"
           d=""
           id="path754" />
      </symbol>
      <symbol
         overflow="visible"
         id="symbol9397">
        <path
           style="stroke:none"
           d="m 3.65625,-3.984375 h 0.859375 c 0.203125,0 0.296875,0 0.296875,-0.203125 0,-0.109375 -0.09375,-0.109375 -0.265625,-0.109375 H 3.71875 L 3.921875,-5.4375 c 0.046875,-0.203125 0.1875,-0.90625 0.25,-1.03125 0.078125,-0.1875 0.25,-0.34375 0.46875,-0.34375 0.03125,0 0.296875,0 0.484375,0.1875 -0.4375,0.03125 -0.546875,0.390625 -0.546875,0.53125 0,0.234375 0.1875,0.359375 0.375,0.359375 C 5.21875,-5.734375 5.5,-5.96875 5.5,-6.34375 c 0,-0.453125 -0.453125,-0.6875 -0.859375,-0.6875 -0.34375,0 -0.96875,0.1875 -1.265625,1.171875 -0.0625,0.203125 -0.09375,0.3125 -0.328125,1.5625 h -0.6875 c -0.203125,0 -0.3125,0 -0.3125,0.1875 0,0.125 0.09375,0.125 0.28125,0.125 h 0.65625 L 2.25,-0.046875 c -0.1875,0.96875 -0.359375,1.875 -0.875,1.875 -0.046875,0 -0.28125,0 -0.484375,-0.1875 C 1.359375,1.609375 1.453125,1.25 1.453125,1.109375 1.453125,0.875 1.265625,0.75 1.078125,0.75 0.8125,0.75 0.53125,0.984375 0.53125,1.359375 c 0,0.4375 0.4375,0.6875 0.84375,0.6875 0.546875,0 0.953125,-0.59375 1.125,-0.96875 0.328125,-0.625 0.546875,-1.828125 0.5625,-1.90625 z m 0,0"
           id="path3441" />
      </symbol>
      <symbol
         overflow="visible"
         id="symbol8719">
        <path
           style="stroke:none"
           d=""
           id="path7368" />
      </symbol>
      <symbol
         overflow="visible"
         id="symbol6148">
        <path
           style="stroke:none"
           d="m 2.3125,-4.21875 c 0,-0.140625 0,-0.359375 0.203125,-0.546875 0.21875,-0.1875 0.484375,-0.25 0.75,-0.265625 0.09375,0 0.15625,0 0.15625,-0.09375 0,-0.09375 -0.078125,-0.09375 -0.1875,-0.09375 -0.734375,0 -1.46875,0.3125 -1.46875,0.875 v 1.640625 c 0,0.171875 0,0.390625 -0.234375,0.59375 -0.171875,0.140625 -0.390625,0.25 -0.734375,0.265625 -0.09375,0.015625 -0.140625,0.015625 -0.140625,0.109375 0,0.078125 0.0625,0.078125 0.125,0.09375 0.828125,0.046875 0.96875,0.53125 0.984375,0.734375 v 1.625 c 0,0.1875 0,0.5 0.359375,0.75 0.390625,0.25 0.9375,0.265625 1.109375,0.265625 0.109375,0 0.1875,0 0.1875,-0.09375 0,-0.09375 -0.0625,-0.09375 -0.125,-0.09375 C 2.640625,1.515625 2.375,1.203125 2.328125,0.9375 2.3125,0.875 2.3125,0.828125 2.3125,0.71875 V -0.734375 C 2.3125,-0.9375 2.3125,-1.1875 2.125,-1.375 2.03125,-1.46875 1.875,-1.640625 1.484375,-1.734375 1.75,-1.8125 2.21875,-2 2.296875,-2.484375 2.3125,-2.515625 2.3125,-2.53125 2.3125,-2.765625 Z m 0,0"
           id="path6194" />
      </symbol>
      <symbol
         overflow="visible"
         id="symbol5801">
        <path
           style="stroke:none"
           d="m 2.3125,-0.78125 c 0,-0.171875 0,-0.390625 0.21875,-0.59375 0.171875,-0.140625 0.390625,-0.25 0.75,-0.265625 0.078125,-0.015625 0.140625,-0.015625 0.140625,-0.09375 0,-0.09375 -0.0625,-0.09375 -0.125,-0.109375 C 2.46875,-1.890625 2.3125,-2.375 2.3125,-2.578125 v -1.625 c 0,-0.1875 0,-0.5 -0.375,-0.75 C 1.546875,-5.203125 1,-5.21875 0.828125,-5.21875 c -0.09375,0 -0.171875,0 -0.171875,0.09375 0,0.09375 0.0625,0.09375 0.125,0.09375 C 1.421875,-5 1.6875,-4.6875 1.75,-4.421875 c 0.015625,0.0625 0.015625,0.109375 0.015625,0.21875 V -2.75 c 0,0.203125 0,0.453125 0.171875,0.640625 0.109375,0.09375 0.265625,0.265625 0.65625,0.375 -0.28125,0.0625 -0.75,0.25 -0.828125,0.734375 0,0.03125 0,0.046875 0,0.28125 v 1.453125 c 0,0.140625 0,0.359375 -0.21875,0.546875 -0.203125,0.1875 -0.46875,0.25 -0.75,0.265625 -0.09375,0 -0.140625,0 -0.140625,0.09375 0,0.09375 0.078125,0.09375 0.171875,0.09375 0.75,0 1.46875,-0.3125 1.484375,-0.875 z m 0,0"
           id="path4427" />
      </symbol>
      <symbol
         overflow="visible"
         id="symbol383">
        <path
           style="stroke:none"
           d=""
           id="path9836" />
      </symbol>
      <symbol
         overflow="visible"
         id="symbol7647">
        <path
           style="stroke:none"
           d="m 1.90625,-2.328125 c 0.546875,0 0.9375,0.375 0.9375,1.125 0,0.859375 -0.515625,1.125 -0.90625,1.125 -0.28125,0 -0.90625,-0.078125 -1.1875,-0.5 0.328125,0 0.40625,-0.234375 0.40625,-0.390625 0,-0.21875 -0.171875,-0.375 -0.390625,-0.375 -0.1875,0 -0.390625,0.125 -0.390625,0.40625 0,0.65625 0.71875,1.078125 1.5625,1.078125 0.96875,0 1.640625,-0.65625 1.640625,-1.34375 0,-0.546875 -0.4375,-1.09375 -1.203125,-1.25 0.71875,-0.265625 0.984375,-0.78125 0.984375,-1.21875 0,-0.546875 -0.625,-0.953125 -1.40625,-0.953125 -0.765625,0 -1.359375,0.375 -1.359375,0.9375 0,0.234375 0.15625,0.359375 0.359375,0.359375 0.21875,0 0.359375,-0.15625 0.359375,-0.34375 0,-0.203125 -0.140625,-0.359375 -0.359375,-0.375 0.25,-0.296875 0.71875,-0.375 0.984375,-0.375 0.3125,0 0.75,0.15625 0.75,0.75 0,0.296875 -0.09375,0.625 -0.28125,0.828125 -0.21875,0.265625 -0.421875,0.28125 -0.765625,0.3125 -0.171875,0.015625 -0.1875,0.015625 -0.21875,0.015625 -0.015625,0 -0.078125,0.015625 -0.078125,0.09375 0,0.09375 0.0625,0.09375 0.1875,0.09375 z m 0,0"
           id="path8686" />
      </symbol>
    </g>
    <g
       id="g5696">
      <symbol
         overflow="visible"
         id="symbol3256">
        <path
           style="stroke:none"
           d=""
           id="path1092" />
      </symbol>
      <symbol
         overflow="visible"
         id="symbol4642">
        <path
           style="stroke:none"
           d="M 2.5,-6.921875 1.15625,-5.5625 1.328125,-5.390625 2.5,-6.40625 3.640625,-5.390625 3.8125,-5.5625 Z m 0,0"
           id="path4024" />
      </symbol>
      <symbol
         overflow="visible"
         id="symbol4110">
        <path
           style="stroke:none"
           d=""
           id="path2781" />
      </symbol>
      <symbol
         overflow="visible"
         id="symbol8227">
        <path
           style="stroke:none"
           d="m 3.65625,-3.984375 h 0.859375 c 0.203125,0 0.296875,0 0.296875,-0.203125 0,-0.109375 -0.09375,-0.109375 -0.265625,-0.109375 H 3.71875 L 3.921875,-5.4375 c 0.046875,-0.203125 0.1875,-0.90625 0.25,-1.03125 0.078125,-0.1875 0.25,-0.34375 0.46875,-0.34375 0.03125,0 0.296875,0 0.484375,0.1875 -0.4375,0.03125 -0.546875,0.390625 -0.546875,0.53125 0,0.234375 0.1875,0.359375 0.375,0.359375 C 5.21875,-5.734375 5.5,-5.96875 5.5,-6.34375 c 0,-0.453125 -0.453125,-0.6875 -0.859375,-0.6875 -0.34375,0 -0.96875,0.1875 -1.265625,1.171875 -0.0625,0.203125 -0.09375,0.3125 -0.328125,1.5625 h -0.6875 c -0.203125,0 -0.3125,0 -0.3125,0.1875 0,0.125 0.09375,0.125 0.28125,0.125 h 0.65625 L 2.25,-0.046875 c -0.1875,0.96875 -0.359375,1.875 -0.875,1.875 -0.046875,0 -0.28125,0 -0.484375,-0.1875 C 1.359375,1.609375 1.453125,1.25 1.453125,1.109375 1.453125,0.875 1.265625,0.75 1.078125,0.75 0.8125,0.75 0.53125,0.984375 0.53125,1.359375 c 0,0.4375 0.4375,0.6875 0.84375,0.6875 0.546875,0 0.953125,-0.59375 1.125,-0.96875 0.328125,-0.625 0.546875,-1.828125 0.5625,-1.90625 z m 0,0"
           id="path9026" />
      </symbol>
      <symbol
         overflow="visible"
         id="symbol6829">
        <path
           style="stroke:none"
           d=""
           id="path8032" />
      </symbol>
      <symbol
         overflow="visible"
         id="symbol1474">
        <path
           style="stroke:none"
           d="m 2.3125,-4.21875 c 0,-0.140625 0,-0.359375 0.203125,-0.546875 0.21875,-0.1875 0.484375,-0.25 0.75,-0.265625 0.09375,0 0.15625,0 0.15625,-0.09375 0,-0.09375 -0.078125,-0.09375 -0.1875,-0.09375 -0.734375,0 -1.46875,0.3125 -1.46875,0.875 v 1.640625 c 0,0.171875 0,0.390625 -0.234375,0.59375 -0.171875,0.140625 -0.390625,0.25 -0.734375,0.265625 -0.09375,0.015625 -0.140625,0.015625 -0.140625,0.109375 0,0.078125 0.0625,0.078125 0.125,0.09375 0.828125,0.046875 0.96875,0.53125 0.984375,0.734375 v 1.625 c 0,0.1875 0,0.5 0.359375,0.75 0.390625,0.25 0.9375,0.265625 1.109375,0.265625 0.109375,0 0.1875,0 0.1875,-0.09375 0,-0.09375 -0.0625,-0.09375 -0.125,-0.09375 C 2.640625,1.515625 2.375,1.203125 2.328125,0.9375 2.3125,0.875 2.3125,0.828125 2.3125,0.71875 V -0.734375 C 2.3125,-0.9375 2.3125,-1.1875 2.125,-1.375 2.03125,-1.46875 1.875,-1.640625 1.484375,-1.734375 1.75,-1.8125 2.21875,-2 2.296875,-2.484375 2.3125,-2.515625 2.3125,-2.53125 2.3125,-2.765625 Z m 0,0"
           id="path696" />
      </symbol>
      <symbol
         overflow="visible"
         id="symbol9088">
        <path
           style="stroke:none"
           d="m 2.3125,-0.78125 c 0,-0.171875 0,-0.390625 0.21875,-0.59375 0.171875,-0.140625 0.390625,-0.25 0.75,-0.265625 0.078125,-0.015625 0.140625,-0.015625 0.140625,-0.09375 0,-0.09375 -0.0625,-0.09375 -0.125,-0.109375 C 2.46875,-1.890625 2.3125,-2.375 2.3125,-2.578125 v -1.625 c 0,-0.1875 0,-0.5 -0.375,-0.75 C 1.546875,-5.203125 1,-5.21875 0.828125,-5.21875 c -0.09375,0 -0.171875,0 -0.171875,0.09375 0,0.09375 0.0625,0.09375 0.125,0.09375 C 1.421875,-5 1.6875,-4.6875 1.75,-4.421875 c 0.015625,0.0625 0.015625,0.109375 0.015625,0.21875 V -2.75 c 0,0.203125 0,0.453125 0.171875,0.640625 0.109375,0.09375 0.265625,0.265625 0.65625,0.375 -0.28125,0.0625 -0.75,0.25 -0.828125,0.734375 0,0.03125 0,0.046875 0,0.28125 v 1.453125 c 0,0.140625 0,0.359375 -0.21875,0.546875 -0.203125,0.1875 -0.46875,0.25 -0.75,0.265625 -0.09375,0 -0.140625,0 -0.140625,0.09375 0,0.09375 0.078125,0.09375 0.171875,0.09375 0.75,0 1.46875,-0.3125 1.484375,-0.875 z m 0,0"
           id="path194" />
      </symbol>
      <symbol
         overflow="visible"
         id="symbol6896">
        <path
           style="stroke:none"
           d=""
           id="path1183" />
      </symbol>
      <symbol
         overflow="visible"
         id="symbol4374">
        <path
           style="stroke:none"
           d="m 2.328125,-4.4375 c 0,-0.1875 0,-0.1875 -0.203125,-0.1875 -0.453125,0.4375 -1.078125,0.4375 -1.359375,0.4375 v 0.25 c 0.15625,0 0.625,0 1,-0.1875 v 3.546875 c 0,0.234375 0,0.328125 -0.6875,0.328125 H 0.8125 V 0 c 0.125,0 0.984375,-0.03125 1.234375,-0.03125 0.21875,0 1.09375,0.03125 1.25,0.03125 V -0.25 H 3.03125 c -0.703125,0 -0.703125,-0.09375 -0.703125,-0.328125 z m 0,0"
           id="path88" />
      </symbol>
      <symbol
         overflow="visible"
         id="symbol5142">
        <path
           style="stroke:none"
           d="M 3.515625,-1.265625 H 3.28125 c -0.015625,0.15625 -0.09375,0.5625 -0.1875,0.625 C 3.046875,-0.59375 2.515625,-0.59375 2.40625,-0.59375 H 1.125 c 0.734375,-0.640625 0.984375,-0.84375 1.390625,-1.171875 0.515625,-0.40625 1,-0.84375 1,-1.5 0,-0.84375 -0.734375,-1.359375 -1.625,-1.359375 -0.859375,0 -1.453125,0.609375 -1.453125,1.25 0,0.34375 0.296875,0.390625 0.375,0.390625 0.15625,0 0.359375,-0.125 0.359375,-0.375 0,-0.125 -0.046875,-0.375 -0.40625,-0.375 C 0.984375,-4.21875 1.453125,-4.375 1.78125,-4.375 c 0.703125,0 1.0625,0.546875 1.0625,1.109375 0,0.609375 -0.4375,1.078125 -0.65625,1.328125 L 0.515625,-0.265625 C 0.4375,-0.203125 0.4375,-0.1875 0.4375,0 h 2.875 z m 0,0"
           id="path8470" />
      </symbol>
      <symbol
         overflow="visible"
         id="symbol1506">
        <path
           style="stroke:none"
           d=""
           id="path5963" />
      </symbol>
      <symbol
         overflow="visible"
         id="symbol6197">
        <path
           style="stroke:none"
           d="m 1.46875,-0.109375 c 0,0.375 -0.0625,0.828125 -0.546875,1.265625 C 0.90625,1.1875 0.875,1.21875 0.875,1.25 c 0,0.046875 0.0625,0.09375 0.09375,0.09375 0.109375,0 0.703125,-0.5625 0.703125,-1.390625 0,-0.421875 -0.171875,-0.75 -0.5,-0.75 -0.21875,0 -0.390625,0.171875 -0.390625,0.390625 C 0.78125,-0.1875 0.9375,0 1.1875,0 1.359375,0 1.46875,-0.109375 1.46875,-0.109375 Z m 0,0"
           id="path886" />
      </symbol>
    </g>
    <g
       id="g1862">
      <symbol
         overflow="visible"
         id="symbol4022">
        <path
           style="stroke:none"
           d=""
           id="path5939" />
      </symbol>
      <symbol
         overflow="visible"
         id="symbol1845">
        <path
           style="stroke:none"
           d="M 2.5,-6.921875 1.15625,-5.5625 1.328125,-5.390625 2.5,-6.40625 3.640625,-5.390625 3.8125,-5.5625 Z m 0,0"
           id="path257" />
      </symbol>
      <symbol
         overflow="visible"
         id="symbol4621">
        <path
           style="stroke:none"
           d=""
           id="path9667" />
      </symbol>
      <symbol
         overflow="visible"
         id="symbol3338">
        <path
           style="stroke:none"
           d="m 3.65625,-3.984375 h 0.859375 c 0.203125,0 0.296875,0 0.296875,-0.203125 0,-0.109375 -0.09375,-0.109375 -0.265625,-0.109375 H 3.71875 L 3.921875,-5.4375 c 0.046875,-0.203125 0.1875,-0.90625 0.25,-1.03125 0.078125,-0.1875 0.25,-0.34375 0.46875,-0.34375 0.03125,0 0.296875,0 0.484375,0.1875 -0.4375,0.03125 -0.546875,0.390625 -0.546875,0.53125 0,0.234375 0.1875,0.359375 0.375,0.359375 C 5.21875,-5.734375 5.5,-5.96875 5.5,-6.34375 c 0,-0.453125 -0.453125,-0.6875 -0.859375,-0.6875 -0.34375,0 -0.96875,0.1875 -1.265625,1.171875 -0.0625,0.203125 -0.09375,0.3125 -0.328125,1.5625 h -0.6875 c -0.203125,0 -0.3125,0 -0.3125,0.1875 0,0.125 0.09375,0.125 0.28125,0.125 h 0.65625 L 2.25,-0.046875 c -0.1875,0.96875 -0.359375,1.875 -0.875,1.875 -0.046875,0 -0.28125,0 -0.484375,-0.1875 C 1.359375,1.609375 1.453125,1.25 1.453125,1.109375 1.453125,0.875 1.265625,0.75 1.078125,0.75 0.8125,0.75 0.53125,0.984375 0.53125,1.359375 c 0,0.4375 0.4375,0.6875 0.84375,0.6875 0.546875,0 0.953125,-0.59375 1.125,-0.96875 0.328125,-0.625 0.546875,-1.828125 0.5625,-1.90625 z m 0,0"
           id="path6670" />
      </symbol>
      <symbol
         overflow="visible"
         id="symbol8002">
        <path
           style="stroke:none"
           d=""
           id="path2265" />
      </symbol>
      <symbol
         overflow="visible"
         id="symbol7432">
        <path
           style="stroke:none"
           d="m 2.3125,-4.21875 c 0,-0.140625 0,-0.359375 0.203125,-0.546875 0.21875,-0.1875 0.484375,-0.25 0.75,-0.265625 0.09375,0 0.15625,0 0.15625,-0.09375 0,-0.09375 -0.078125,-0.09375 -0.1875,-0.09375 -0.734375,0 -1.46875,0.3125 -1.46875,0.875 v 1.640625 c 0,0.171875 0,0.390625 -0.234375,0.59375 -0.171875,0.140625 -0.390625,0.25 -0.734375,0.265625 -0.09375,0.015625 -0.140625,0.015625 -0.140625,0.109375 0,0.078125 0.0625,0.078125 0.125,0.09375 0.828125,0.046875 0.96875,0.53125 0.984375,0.734375 v 1.625 c 0,0.1875 0,0.5 0.359375,0.75 0.390625,0.25 0.9375,0.265625 1.109375,0.265625 0.109375,0 0.1875,0 0.1875,-0.09375 0,-0.09375 -0.0625,-0.09375 -0.125,-0.09375 C 2.640625,1.515625 2.375,1.203125 2.328125,0.9375 2.3125,0.875 2.3125,0.828125 2.3125,0.71875 V -0.734375 C 2.3125,-0.9375 2.3125,-1.1875 2.125,-1.375 2.03125,-1.46875 1.875,-1.640625 1.484375,-1.734375 1.75,-1.8125 2.21875,-2 2.296875,-2.484375 2.3125,-2.515625 2.3125,-2.53125 2.3125,-2.765625 Z m 0,0"
           id="path9188" />
      </symbol>
      <symbol
         overflow="visible"
         id="symbol1076">
        <path
           style="stroke:none"
           d="m 2.3125,-0.78125 c 0,-0.171875 0,-0.390625 0.21875,-0.59375 0.171875,-0.140625 0.390625,-0.25 0.75,-0.265625 0.078125,-0.015625 0.140625,-0.015625 0.140625,-0.09375 0,-0.09375 -0.0625,-0.09375 -0.125,-0.109375 C 2.46875,-1.890625 2.3125,-2.375 2.3125,-2.578125 v -1.625 c 0,-0.1875 0,-0.5 -0.375,-0.75 C 1.546875,-5.203125 1,-5.21875 0.828125,-5.21875 c -0.09375,0 -0.171875,0 -0.171875,0.09375 0,0.09375 0.0625,0.09375 0.125,0.09375 C 1.421875,-5 1.6875,-4.6875 1.75,-4.421875 c 0.015625,0.0625 0.015625,0.109375 0.015625,0.21875 V -2.75 c 0,0.203125 0,0.453125 0.171875,0.640625 0.109375,0.09375 0.265625,0.265625 0.65625,0.375 -0.28125,0.0625 -0.75,0.25 -0.828125,0.734375 0,0.03125 0,0.046875 0,0.28125 v 1.453125 c 0,0.140625 0,0.359375 -0.21875,0.546875 -0.203125,0.1875 -0.46875,0.25 -0.75,0.265625 -0.09375,0 -0.140625,0 -0.140625,0.09375 0,0.09375 0.078125,0.09375 0.171875,0.09375 0.75,0 1.46875,-0.3125 1.484375,-0.875 z m 0,0"
           id="path2817" />
      </symbol>
      <symbol
         overflow="visible"
         id="symbol1197">
        <path
           style="stroke:none"
           d=""
           id="path3076" />
      </symbol>
      <symbol
         overflow="visible"
         id="symbol402">
        <path
           style="stroke:none"
           d="M 3.59375,-2.21875 C 3.59375,-2.984375 3.5,-3.546875 3.1875,-4.03125 2.96875,-4.34375 2.53125,-4.625 1.984375,-4.625 c -1.625,0 -1.625,1.90625 -1.625,2.40625 0,0.5 0,2.359375 1.625,2.359375 1.609375,0 1.609375,-1.859375 1.609375,-2.359375 z M 1.984375,-0.0625 c -0.328125,0 -0.75,-0.1875 -0.890625,-0.75 C 1,-1.21875 1,-1.796875 1,-2.3125 1,-2.828125 1,-3.359375 1.09375,-3.734375 1.25,-4.28125 1.6875,-4.4375 1.984375,-4.4375 c 0.375,0 0.734375,0.234375 0.859375,0.640625 0.109375,0.375 0.125,0.875 0.125,1.484375 0,0.515625 0,1.03125 -0.09375,1.46875 -0.140625,0.640625 -0.609375,0.78125 -0.890625,0.78125 z m 0,0"
           id="path7068" />
      </symbol>
      <symbol
         overflow="visible"
         id="symbol8643">
        <path
           style="stroke:none"
           d="m 2.328125,-4.4375 c 0,-0.1875 0,-0.1875 -0.203125,-0.1875 -0.453125,0.4375 -1.078125,0.4375 -1.359375,0.4375 v 0.25 c 0.15625,0 0.625,0 1,-0.1875 v 3.546875 c 0,0.234375 0,0.328125 -0.6875,0.328125 H 0.8125 V 0 c 0.125,0 0.984375,-0.03125 1.234375,-0.03125 0.21875,0 1.09375,0.03125 1.25,0.03125 V -0.25 H 3.03125 c -0.703125,0 -0.703125,-0.09375 -0.703125,-0.328125 z m 0,0"
           id="path514" />
      </symbol>
      <symbol
         overflow="visible"
         id="symbol2871">
        <path
           style="stroke:none"
           d="M 3.515625,-1.265625 H 3.28125 c -0.015625,0.15625 -0.09375,0.5625 -0.1875,0.625 C 3.046875,-0.59375 2.515625,-0.59375 2.40625,-0.59375 H 1.125 c 0.734375,-0.640625 0.984375,-0.84375 1.390625,-1.171875 0.515625,-0.40625 1,-0.84375 1,-1.5 0,-0.84375 -0.734375,-1.359375 -1.625,-1.359375 -0.859375,0 -1.453125,0.609375 -1.453125,1.25 0,0.34375 0.296875,0.390625 0.375,0.390625 0.15625,0 0.359375,-0.125 0.359375,-0.375 0,-0.125 -0.046875,-0.375 -0.40625,-0.375 C 0.984375,-4.21875 1.453125,-4.375 1.78125,-4.375 c 0.703125,0 1.0625,0.546875 1.0625,1.109375 0,0.609375 -0.4375,1.078125 -0.65625,1.328125 L 0.515625,-0.265625 C 0.4375,-0.203125 0.4375,-0.1875 0.4375,0 h 2.875 z m 0,0"
           id="path8467" />
      </symbol>
      <symbol
         overflow="visible"
         id="symbol3617">
        <path
           style="stroke:none"
           d=""
           id="path3038" />
      </symbol>
      <symbol
         overflow="visible"
         id="symbol219">
        <path
           style="stroke:none"
           d="m 1.46875,-0.109375 c 0,0.375 -0.0625,0.828125 -0.546875,1.265625 C 0.90625,1.1875 0.875,1.21875 0.875,1.25 c 0,0.046875 0.0625,0.09375 0.09375,0.09375 0.109375,0 0.703125,-0.5625 0.703125,-1.390625 0,-0.421875 -0.171875,-0.75 -0.5,-0.75 -0.21875,0 -0.390625,0.171875 -0.390625,0.390625 C 0.78125,-0.1875 0.9375,0 1.1875,0 1.359375,0 1.46875,-0.109375 1.46875,-0.109375 Z m 0,0"
           id="path3597" />
      </symbol>
    </g>
  </defs>
  <g
     inkscape:label="Layer 1"
     inkscape:groupmode="layer"
     id="layer1"
     transform="translate(176.83324,-46.404973)">
    <ellipse
       style="fill:none;fill-opacity:0.318508;stroke:#000000;stroke-width:1;stroke-miterlimit:4;stroke-dasharray:none;stroke-opacity:1"
       id="path2508"
       cx="-180.55759"
       cy="32.138538"
       rx="53.884937"
       ry="99.518524"
       transform="rotate(-49.44364)" />
    <ellipse
       style="fill:#000000;fill-opacity:0.25;stroke:#000000;stroke-width:1;stroke-miterlimit:4;stroke-dasharray:none;stroke-opacity:1"
       id="path2508-5"
       cx="119.54229"
       cy="-102.71387"
       rx="53.884937"
       ry="99.518524"
       transform="matrix(0.65019572,0.75976676,0.75976676,-0.65019572,0,0)" />
    <ellipse
       style="fill:none;fill-opacity:0.318508;stroke:#000000;stroke-width:1;stroke-miterlimit:4;stroke-dasharray:none;stroke-opacity:1"
       id="path2508-5-6"
       transform="matrix(0.662855,0.74874779,0.74874779,-0.662855,0,0)"
       ry="96.808762"
       rx="43.219547"
       cy="-123.39072"
       cx="68.002785" />
    <ellipse
       style="fill:none;fill-opacity:0.318508;stroke:#000000;stroke-width:1;stroke-miterlimit:4;stroke-dasharray:none;stroke-opacity:1"
       id="path2508-5-6-2"
       cx="-129.46967"
       cy="56.694424"
       rx="44.001919"
       ry="96.808762"
       transform="rotate(-48.482024)" />
    <g
       inkscape:label=""
       transform="translate(-262.99345,-5.8393257)"
       id="g1306">
      <g
         id="g9907">
        <g
           style="fill:#000000;fill-opacity:1"
           id="g9479">
          <use
             xlink:href="#symbol6285"
             x="91.925003"
             y="81.962997"
             id="use7567"
             width="100%"
             height="100%" />
        </g>
        <g
           style="fill:#000000;fill-opacity:1"
           id="g9680">
          <use
             xlink:href="#symbol9321"
             x="99.397003"
             y="83.457001"
             id="use50"
             width="100%"
             height="100%" />
        </g>
      </g>
    </g>
    <g
       inkscape:label=""
       transform="translate(-200.21158,-28.417399)"
       id="g1456">
      <g
         id="g5370">
        <g
           style="fill:#000000;fill-opacity:1"
           id="g9287">
          <use
             xlink:href="#symbol7086"
             x="91.925003"
             y="81.962997"
             id="use7464"
             width="100%"
             height="100%" />
        </g>
        <g
           style="fill:#000000;fill-opacity:1"
           id="g6960">
          <use
             xlink:href="#symbol7360"
             x="99.397003"
             y="83.457001"
             id="use6525"
             width="100%"
             height="100%" />
        </g>
      </g>
    </g>
    <g
       inkscape:label=""
       transform="translate(-73.43042,-27.000745)"
       id="g1631">
      <g
         id="g7745">
        <g
           style="fill:#000000;fill-opacity:1"
           id="g5388">
          <use
             xlink:href="#symbol962"
             x="91.925003"
             y="81.962997"
             id="use5437"
             width="100%"
             height="100%" />
        </g>
        <g
           style="fill:#000000;fill-opacity:1"
           id="g2534">
          <use
             xlink:href="#symbol4181"
             x="99.397003"
             y="83.457001"
             id="use8044"
             width="100%"
             height="100%" />
        </g>
      </g>
    </g>
    <g
       inkscape:label=""
       transform="translate(-15.425443,0.88276595)"
       id="g1836">
      <g
         id="g6681">
        <g
           style="fill:#000000;fill-opacity:1"
           id="g2557">
          <use
             xlink:href="#symbol5781"
             x="91.925003"
             y="81.962997"
             id="use8020"
             width="100%"
             height="100%" />
        </g>
        <g
           style="fill:#000000;fill-opacity:1"
           id="g3226">
          <use
             xlink:href="#symbol50"
             x="99.397003"
             y="83.457001"
             id="use8174"
             width="100%"
             height="100%" />
        </g>
      </g>
    </g>
    <ellipse
       style="fill:none;fill-opacity:0.318508;stroke:#000000;stroke-width:1;stroke-miterlimit:4;stroke-dasharray:none;stroke-opacity:1"
       id="ellipse990"
       cx="34.136772"
       cy="283.01352"
       rx="53.884937"
       ry="99.518524"
       transform="rotate(-49.44364)" />
    <ellipse
       style="fill:none;fill-opacity:0.318508;stroke:#000000;stroke-width:1;stroke-miterlimit:4;stroke-dasharray:none;stroke-opacity:1"
       id="ellipse992"
       cx="334.23654"
       cy="148.16119"
       rx="53.884937"
       ry="99.518524"
       transform="matrix(0.65019572,0.75976676,0.75976676,-0.65019572,0,0)" />
    <ellipse
       style="fill:none;fill-opacity:0.318508;stroke:#000000;stroke-width:1;stroke-miterlimit:4;stroke-dasharray:none;stroke-opacity:1"
       id="ellipse994"
       transform="matrix(0.662855,0.74874779,0.74874779,-0.662855,0,0)"
       ry="96.808762"
       rx="43.219547"
       cy="123.84563"
       cx="286.87766" />
    <ellipse
       style="fill:none;fill-opacity:0.318508;stroke:#000000;stroke-width:1;stroke-miterlimit:4;stroke-dasharray:none;stroke-opacity:1"
       id="ellipse996"
       cx="89.404968"
       cy="303.93103"
       rx="44.001919"
       ry="96.808762"
       transform="rotate(-48.482024)" />
    <g
       inkscape:label=""
       transform="translate(67.206762,-5.8393257)"
       id="g1008">
      <g
         id="g1006">
        <g
           style="fill:#000000;fill-opacity:1"
           id="g1000">
          <use
             xlink:href="#symbol6285"
             x="91.925003"
             y="81.962997"
             id="use998"
             width="100%"
             height="100%" />
        </g>
        <g
           style="fill:#000000;fill-opacity:1"
           id="g1004">
          <use
             xlink:href="#symbol9321"
             x="99.397003"
             y="83.457001"
             id="use1002"
             width="100%"
             height="100%" />
        </g>
      </g>
    </g>
    <g
       inkscape:label=""
       transform="translate(129.98861,-28.417399)"
       id="g1020">
      <g
         id="g1018">
        <g
           style="fill:#000000;fill-opacity:1"
           id="g1012">
          <use
             xlink:href="#symbol7086"
             x="91.925003"
             y="81.962997"
             id="use1010"
             width="100%"
             height="100%" />
        </g>
        <g
           style="fill:#000000;fill-opacity:1"
           id="g1016">
          <use
             xlink:href="#symbol7360"
             x="99.397003"
             y="83.457001"
             id="use1014"
             width="100%"
             height="100%" />
        </g>
      </g>
    </g>
    <g
       inkscape:label=""
       transform="translate(256.7697,-27.000745)"
       id="g1032">
      <g
         id="g1030">
        <g
           style="fill:#000000;fill-opacity:1"
           id="g1024">
          <use
             xlink:href="#symbol962"
             x="91.925003"
             y="81.962997"
             id="use1022"
             width="100%"
             height="100%" />
        </g>
        <g
           style="fill:#000000;fill-opacity:1"
           id="g1028">
          <use
             xlink:href="#symbol4181"
             x="99.397003"
             y="83.457001"
             id="use1026"
             width="100%"
             height="100%" />
        </g>
      </g>
    </g>
    <g
       inkscape:label=""
       transform="translate(314.7747,0.88276595)"
       id="g1044">
      <g
         id="g1042">
        <g
           style="fill:#000000;fill-opacity:1"
           id="g1036">
          <use
             xlink:href="#symbol5781"
             x="91.925003"
             y="81.962997"
             id="use1034"
             width="100%"
             height="100%" />
        </g>
        <g
           style="fill:#000000;fill-opacity:1"
           id="g1040">
          <use
             xlink:href="#symbol50"
             x="99.397003"
             y="83.457001"
             id="use1038"
             width="100%"
             height="100%" />
        </g>
      </g>
    </g>
    <ellipse
       style="fill:none;fill-opacity:0.318508;stroke:#000000;stroke-width:1;stroke-miterlimit:4;stroke-dasharray:none;stroke-opacity:1"
       id="ellipse1046"
       cx="-244.82097"
       cy="298.86496"
       rx="53.884937"
       ry="99.518524"
       transform="rotate(-49.44364)" />
    <ellipse
       style="fill:none;fill-opacity:0.318508;stroke:#000000;stroke-width:1;stroke-miterlimit:4;stroke-dasharray:none;stroke-opacity:1"
       id="ellipse1048"
       cx="392.9957"
       cy="-124.99863"
       rx="53.884937"
       ry="99.518524"
       transform="matrix(0.65019572,0.75976676,0.75976676,-0.65019572,0,0)" />
    <ellipse
       style="fill:none;fill-opacity:0.318508;stroke:#000000;stroke-width:1;stroke-miterlimit:4;stroke-dasharray:none;stroke-opacity:1"
       id="ellipse1050"
       transform="matrix(0.662855,0.74874779,0.74874779,-0.662855,0,0)"
       ry="96.808762"
       rx="43.219547"
       cy="-150.2618"
       cx="341.04385" />
    <ellipse
       style="fill:none;fill-opacity:0.318508;stroke:#000000;stroke-width:1;stroke-miterlimit:4;stroke-dasharray:none;stroke-opacity:1"
       id="ellipse1052"
       cx="-189.24773"
       cy="324.4621"
       rx="44.001919"
       ry="96.808762"
       transform="rotate(-48.482024)" />
    <g
       inkscape:label=""
       transform="translate(-102.12658,216.41075)"
       id="g1064">
      <g
         id="g1062">
        <g
           style="fill:#000000;fill-opacity:1"
           id="g1056">
          <use
             xlink:href="#symbol6285"
             x="91.925003"
             y="81.962997"
             id="use1054"
             width="100%"
             height="100%" />
        </g>
        <g
           style="fill:#000000;fill-opacity:1"
           id="g1060">
          <use
             xlink:href="#symbol9321"
             x="99.397003"
             y="83.457001"
             id="use1058"
             width="100%"
             height="100%" />
        </g>
      </g>
    </g>
    <g
       inkscape:label=""
       transform="translate(-39.344747,193.83266)"
       id="g1076">
      <g
         id="g1074">
        <g
           style="fill:#000000;fill-opacity:1"
           id="g1068">
          <use
             xlink:href="#symbol7086"
             x="91.925003"
             y="81.962997"
             id="use1066"
             width="100%"
             height="100%" />
        </g>
        <g
           style="fill:#000000;fill-opacity:1"
           id="g1072">
          <use
             xlink:href="#symbol7360"
             x="99.397003"
             y="83.457001"
             id="use1070"
             width="100%"
             height="100%" />
        </g>
      </g>
    </g>
    <g
       inkscape:label=""
       transform="translate(87.436269,195.24932)"
       id="g1088">
      <g
         id="g1086">
        <g
           style="fill:#000000;fill-opacity:1"
           id="g1080">
          <use
             xlink:href="#symbol962"
             x="91.925003"
             y="81.962997"
             id="use1078"
             width="100%"
             height="100%" />
        </g>
        <g
           style="fill:#000000;fill-opacity:1"
           id="g1084">
          <use
             xlink:href="#symbol4181"
             x="99.397003"
             y="83.457001"
             id="use1082"
             width="100%"
             height="100%" />
        </g>
      </g>
    </g>
    <g
       inkscape:label=""
       transform="translate(145.44126,223.13285)"
       id="g1100">
      <g
         id="g1098">
        <g
           style="fill:#000000;fill-opacity:1"
           id="g1092">
          <use
             xlink:href="#symbol5781"
             x="91.925003"
             y="81.962997"
             id="use1090"
             width="100%"
             height="100%" />
        </g>
        <g
           style="fill:#000000;fill-opacity:1"
           id="g1096">
          <use
             xlink:href="#symbol50"
             x="99.397003"
             y="83.457001"
             id="use1094"
             width="100%"
             height="100%" />
        </g>
      </g>
    </g>
    <path
       id="ellipse1354"
       style="fill:#000000;fill-opacity:0.25;stroke:none;stroke-width:3.77953;stroke-miterlimit:4;stroke-dasharray:none;stroke-opacity:1"
       d="m 1741.7266,120.75 a 163.34947,365.89138 48.482024 0 0 -112.4766,83.125 163.34947,365.89138 48.482024 0 0 -108.1191,117.38672 365.89138,166.30646 41.517976 0 0 121.0605,136.29492 365.89138,166.30646 41.517976 0 0 94.6934,71.83594 163.34947,365.89138 48.482024 0 0 108.9199,-80.90235 A 163.34947,365.89138 48.482024 0 0 1963.9551,317.13672 365.89138,166.30646 41.517976 0 0 1862.666,208.51367 365.89138,166.30646 41.517976 0 0 1741.7266,120.75 Z"
       transform="matrix(0.26458333,0,0,0.26458333,-176.83324,46.404973)" />
    <path
       id="ellipse1395"
       style="fill:#000000;fill-opacity:0.25;stroke:none;stroke-width:3.77953;stroke-miterlimit:4;stroke-dasharray:none;stroke-opacity:1"
       d="m 981.39648,1051.0371 a 163.34947,365.89138 48.482024 0 0 -100.26562,110.2246 365.89138,166.30646 41.517976 0 0 121.05864,136.293 365.89138,166.30646 41.517976 0 0 94.6972,71.8398 163.34947,365.89138 48.482024 0 0 107.7149,-79.8711 376.133,203.65961 40.55636 0 0 -147.2598,-182.1875 376.133,203.65961 40.55636 0 0 -75.94532,-56.2988 z"
       transform="matrix(0.26458333,0,0,0.26458333,-176.83324,46.404973)" />
    <g
       inkscape:label=""
       transform="translate(-53.030307,52.863004)"
       id="g1768">
      <g
         id="g7196">
        <g
           style="fill:#000000;fill-opacity:1"
           id="g6573">
          <use
             xlink:href="#symbol9200"
             x="94.07"
             y="79.334"
             id="use2354"
             width="100%"
             height="100%" />
        </g>
        <g
           style="fill:#000000;fill-opacity:1"
           id="g5170">
          <use
             xlink:href="#symbol9397"
             x="91.925003"
             y="81.962997"
             id="use2086"
             width="100%"
             height="100%" />
        </g>
        <g
           style="fill:#000000;fill-opacity:1"
           id="g430">
          <use
             xlink:href="#symbol6148"
             x="96.803001"
             y="83.762001"
             id="use3554"
             width="100%"
             height="100%" />
        </g>
        <g
           style="fill:#000000;fill-opacity:1"
           id="g7958">
          <use
             xlink:href="#symbol7647"
             x="100.885"
             y="83.762001"
             id="use7064"
             width="100%"
             height="100%" />
        </g>
        <g
           style="fill:#000000;fill-opacity:1"
           id="g1259">
          <use
             xlink:href="#symbol5801"
             x="104.856"
             y="83.762001"
             id="use5199"
             width="100%"
             height="100%" />
        </g>
      </g>
    </g>
    <g
       inkscape:label=""
       transform="translate(178.8889,24.446946)"
       id="g2310">
      <g
         id="g1697">
        <g
           style="fill:#000000;fill-opacity:1"
           id="g6156">
          <use
             xlink:href="#symbol4642"
             x="94.07"
             y="79.334"
             id="use1485"
             width="100%"
             height="100%" />
        </g>
        <g
           style="fill:#000000;fill-opacity:1"
           id="g6833">
          <use
             xlink:href="#symbol8227"
             x="91.925003"
             y="81.962997"
             id="use9423"
             width="100%"
             height="100%" />
        </g>
        <g
           style="fill:#000000;fill-opacity:1"
           id="g4636">
          <use
             xlink:href="#symbol1474"
             x="96.803001"
             y="83.762001"
             id="use6742"
             width="100%"
             height="100%" />
        </g>
        <g
           style="fill:#000000;fill-opacity:1"
           id="g5893">
          <use
             xlink:href="#symbol4374"
             x="100.885"
             y="83.762001"
             id="use9606"
             width="100%"
             height="100%" />
        </g>
        <g
           style="fill:#000000;fill-opacity:1"
           id="g3970">
          <use
             xlink:href="#symbol6197"
             x="104.856"
             y="83.762001"
             id="use1492"
             width="100%"
             height="100%" />
        </g>
        <g
           style="fill:#000000;fill-opacity:1"
           id="g2444">
          <use
             xlink:href="#symbol5142"
             x="107.222"
             y="83.762001"
             id="use2064"
             width="100%"
             height="100%" />
        </g>
        <g
           style="fill:#000000;fill-opacity:1"
           id="g7764">
          <use
             xlink:href="#symbol9088"
             x="111.193"
             y="83.762001"
             id="use8861"
             width="100%"
             height="100%" />
        </g>
      </g>
    </g>
    <g
       inkscape:label=""
       transform="translate(-20.252541,273.40992)"
       id="g2863">
      <g
         id="g7959">
        <g
           style="fill:#000000;fill-opacity:1"
           id="g2670">
          <use
             xlink:href="#symbol1845"
             x="94.07"
             y="79.334"
             id="use6107"
             width="100%"
             height="100%" />
        </g>
        <g
           style="fill:#000000;fill-opacity:1"
           id="g310">
          <use
             xlink:href="#symbol3338"
             x="91.925003"
             y="81.962997"
             id="use7564"
             width="100%"
             height="100%" />
        </g>
        <g
           style="fill:#000000;fill-opacity:1"
           id="g534">
          <use
             xlink:href="#symbol7432"
             x="96.803001"
             y="83.762001"
             id="use7204"
             width="100%"
             height="100%" />
        </g>
        <g
           style="fill:#000000;fill-opacity:1"
           id="g2033">
          <use
             xlink:href="#symbol402"
             x="100.885"
             y="83.762001"
             id="use495"
             width="100%"
             height="100%" />
        </g>
        <g
           style="fill:#000000;fill-opacity:1"
           id="g4053">
          <use
             xlink:href="#symbol219"
             x="104.856"
             y="83.762001"
             id="use8018"
             width="100%"
             height="100%" />
        </g>
        <g
           style="fill:#000000;fill-opacity:1"
           id="g1465">
          <use
             xlink:href="#symbol8643"
             x="107.222"
             y="83.762001"
             id="use4492"
             width="100%"
             height="100%" />
        </g>
        <g
           style="fill:#000000;fill-opacity:1"
           id="g9100">
          <use
             xlink:href="#symbol219"
             x="111.193"
             y="83.762001"
             id="use7170"
             width="100%"
             height="100%" />
        </g>
        <g
           style="fill:#000000;fill-opacity:1"
           id="g309">
          <use
             xlink:href="#symbol2871"
             x="113.559"
             y="83.762001"
             id="use3899"
             width="100%"
             height="100%" />
        </g>
        <g
           style="fill:#000000;fill-opacity:1"
           id="g7256">
          <use
             xlink:href="#symbol1076"
             x="117.531"
             y="83.762001"
             id="use9618"
             width="100%"
             height="100%" />
        </g>
      </g>
    </g>
  </g>
</svg>
