<?xml version="1.0" encoding="UTF-8" standalone="no"?>
<!-- Created with Inkscape (http://www.inkscape.org/) -->

<svg
   width="75mm"
   height="71.650002mm"
   viewBox="0 0 75 71.650002"
   version="1.1"
   id="svg5"
   inkscape:version="1.1 (c4e8f9ed74, 2021-05-24)"
   sodipodi:docname="drawing.svg"
   xmlns:inkscape="http://www.inkscape.org/namespaces/inkscape"
   xmlns:sodipodi="http://sodipodi.sourceforge.net/DTD/sodipodi-0.dtd"
   xmlns="http://www.w3.org/2000/svg"
   xmlns:svg="http://www.w3.org/2000/svg">
  <sodipodi:namedview
     id="namedview7"
     pagecolor="#ffffff"
     bordercolor="#cccccc"
     borderopacity="1"
     inkscape:pageshadow="0"
     inkscape:pageopacity="1"
     inkscape:pagecheckerboard="0"
     inkscape:document-units="mm"
     showgrid="false"
     inkscape:zoom="1.8565376"
     inkscape:cx="78.641016"
     inkscape:cy="147.31725"
     inkscape:window-width="1366"
     inkscape:window-height="694"
     inkscape:window-x="0"
     inkscape:window-y="0"
     inkscape:window-maximized="1"
     inkscape:current-layer="layer1" />
  <defs
     id="defs2" />
  <g
     inkscape:label="Layer 1"
     inkscape:groupmode="layer"
     id="layer1">
    <circle
       style="fill:#000000;fill-opacity:0;fill-rule:evenodd;stroke:#000000;stroke-width:0.4;stroke-miterlimit:4;stroke-dasharray:none;stroke-opacity:1"
       id="path33"
       cx="25"
       cy="25"
       r="24.844721" />
    <circle
       style="fill:#000000;fill-opacity:0;fill-rule:evenodd;stroke:#000000;stroke-width:0.4;stroke-miterlimit:4;stroke-dasharray:none;stroke-opacity:1"
       id="path33-6"
       cx="50"
       cy="25"
       r="24.844721" />
    <circle
       style="fill:#000000;fill-opacity:0;fill-rule:evenodd;stroke:#000000;stroke-width:0.4;stroke-miterlimit:4;stroke-dasharray:none;stroke-opacity:1"
       id="path33-6-7"
       cx="37.5"
       cy="46.650002"
       r="24.844721" />
    <path
       id="circle3184"
       style="fill:#000000;fill-opacity:0.318508;fill-rule:evenodd;stroke:none;stroke-width:1.51181104;stroke-miterlimit:4;stroke-dasharray:none;stroke-opacity:1"
       d="m 141.73633,13.349609 a 93.901306,93.901306 0 0 0 -46.662111,81.138672 93.901306,93.901306 0 0 0 0.01953,0.339844 93.901306,93.901306 0 0 1 46.638671,-12.414063 93.901306,93.901306 0 0 1 46.63672,12.40625 93.901306,93.901306 0 0 0 0.0195,-0.332031 A 93.901306,93.901306 0 0 0 141.7363,13.349609 Z M 95.675781,104.81641 a 93.901306,93.901306 0 0 0 0.685547,4.2539 93.901305,93.901305 0 0 1 -0.685547,-4.2539 z m 92.111329,0.006 a 93.901305,93.901305 0 0 1 -0.67578,4.20117 93.901306,93.901306 0 0 0 0.67578,-4.20117 z m -90.382813,10.1875 a 93.901306,93.901306 0 0 0 1.230469,4.55468 93.901305,93.901305 0 0 1 -1.230469,-4.55468 z m 88.654293,0 a 93.901305,93.901305 0 0 1 -1.22461,4.53906 93.901306,93.901306 0 0 0 1.22461,-4.53906 z m -85.81445,9.95312 a 93.901306,93.901306 0 0 0 1.72461,4.48047 93.901305,93.901305 0 0 1 -1.72461,-4.48047 z m 82.97266,0.006 a 93.901305,93.901305 0 0 1 -1.7168,4.45898 93.901306,93.901306 0 0 0 1.7168,-4.45898 z m -79.04297,9.60547 a 93.901306,93.901306 0 0 0 2.18359,4.2793 93.901305,93.901305 0 0 1 -2.18359,-4.2793 z m 75.10742,0.0117 a 93.901305,93.901305 0 0 1 -2.15625,4.23437 93.901306,93.901306 0 0 0 2.15625,-4.23437 z m -70.13477,9.11914 a 93.901306,93.901306 0 0 0 2.58008,3.97656 93.901305,93.901305 0 0 1 -2.58008,-3.97656 z m 65.16016,0.0156 a 93.901305,93.901305 0 0 1 -2.57226,3.96289 93.901306,93.901306 0 0 0 2.57226,-3.96289 z m -5.99609,8.58399 a 93.901305,93.901305 0 0 1 -2.86328,3.54687 93.901306,93.901306 0 0 0 2.86328,-3.54687 z m -53.1543,0.004 a 93.901306,93.901306 0 0 0 2.86914,3.55274 93.901305,93.901305 0 0 1 -2.86914,-3.55274 z m 7.00195,7.95313 a 93.901306,93.901306 0 0 0 3.03711,3.04883 93.901305,93.901305 0 0 1 -3.03711,-3.04883 z m 39.125,0.0254 a 93.901305,93.901305 0 0 1 -3.00195,3.01367 93.901306,93.901306 0 0 0 3.00195,-3.01367 z m -30.98047,7.33594 a 93.901306,93.901306 0 0 0 2.82422,2.29883 93.901305,93.901305 0 0 1 -2.82422,-2.29883 z m 22.83789,0.0195 a 93.901305,93.901305 0 0 1 -2.80078,2.2793 93.901306,93.901306 0 0 0 2.80078,-2.2793 z"
       transform="scale(0.26458333)" />
  </g>
</svg>
